<?xml version="1.0" encoding="utf-8"?>
<svg version="1.1" id="Layer_1" xmlns="http://www.w3.org/2000/svg" xmlns:xlink="http://www.w3.org/1999/xlink" x="0px" y="0px"
	 viewBox="0 0 200.2 200.2" style="enable-background:new 0 0 200.2 200.2;" xml:space="preserve">
<style type="text/css">
	.st0{fill:#FFFFFF;}
</style>
<path d="M72.7,10.1h54.7c34.6,0,62.7,28.1,62.7,62.7v54.7c0,34.6-28.1,62.7-62.7,62.7H72.7c-34.6,0-62.7-28.1-62.7-62.7V72.7
	C10.1,38.1,38.1,10.1,72.7,10.1z"/>
<path class="st0" d="M166.5,116.7c-11.2-2.3-21.2-8.6-28-17.8c-7.3-8.6-19.5-11-29.5-5.9c-3.8,2.7-6.9,6.4-8.9,10.6
	c-2-4.2-5.1-7.9-8.9-10.6C81.2,88,69,90.4,61.7,99c-6.8,9.2-16.8,15.5-28,17.8c-2.2,0-4,1.9-4,4.1c0,0.7,0.2,1.4,0.6,2.1
	c6.7,11.6,19.6,18.1,32.9,16.6c21.9-1.3,32.6-9,36.9-16.9c4.3,7.9,15,15.6,36.9,16.9c13.3,1.5,26.3-5.1,33-16.7
	c1.1-1.9,0.4-4.4-1.5-5.5C167.9,116.9,167.2,116.7,166.5,116.7z"/>
<path class="st0" d="M39.2,76.5c-1.2,0-1.9-0.8-1.9-1.3c0-3.4,1.1-6.7,3.2-9.4c6.1-7.7,17.2-9,24.9-3c1.1,0.9,2.1,1.9,3,3
	c2.1,2.7,3.2,6,3.2,9.4c0,0.9-0.7,1.6-1.7,1.6c-1.6,0-6.6-3.7-6.6-3.7c-5.3-3.6-12.3-3.6-17.7,0C45.6,73.1,40.9,76.5,39.2,76.5z"/>
<path class="st0" d="M130.5,76.5c-1.2,0-1.9-0.8-1.9-1.3c0-3.4,1.1-6.7,3.2-9.4c6.1-7.7,17.2-9,24.9-3c1.1,0.9,2.1,1.9,3,3
	c2.1,2.7,3.2,6,3.2,9.4c0,0.9-0.7,1.6-1.7,1.6c-1.6,0-6.6-3.7-6.6-3.7c-5.3-3.6-12.3-3.6-17.7,0C136.9,73.1,132.2,76.5,130.5,76.5z"
	/>
</svg>
