<?xml version="1.0" encoding="utf-8"?>
<svg version="1.1" id="Layer_1" xmlns="http://www.w3.org/2000/svg" xmlns:xlink="http://www.w3.org/1999/xlink" x="0px" y="0px"
	 viewBox="0 0 22 22" style="enable-background:new 0 0 22 22;" xml:space="preserve">
<style type="text/css">
	.st0{fill:#FFFFFF;}
</style>
<path d="M7.8,0.5h6.4c4,0,7.3,3.3,7.3,7.3v6.4c0,4-3.3,7.3-7.3,7.3H7.8c-4,0-7.3-3.3-7.3-7.3V7.8C0.5,3.8,3.8,0.5,7.8,0.5z"/>
<path class="st0" d="M18.7,12.9c-1.3-0.3-2.5-1-3.3-2.1c-0.8-1-2.3-1.3-3.4-0.7c-0.4,0.3-0.8,0.7-1,1.2c-0.2-0.5-0.6-0.9-1-1.2
	c-1.2-0.6-2.6-0.3-3.4,0.7c-0.8,1.1-2,1.8-3.3,2.1c-0.3,0-0.5,0.2-0.5,0.5c0,0.1,0,0.2,0.1,0.2c0.8,1.3,2.3,2.1,3.8,1.9
	c2.5-0.1,3.8-1.1,4.3-2c0.5,0.9,1.7,1.8,4.3,2c1.6,0.2,3.1-0.6,3.8-1.9c0.1-0.2,0.1-0.5-0.2-0.6C18.9,13,18.8,12.9,18.7,12.9z"/>
<path class="st0" d="M7.7,8.1c0,0.1-0.1,0.2-0.2,0.2c-0.1,0-0.1,0-0.2-0.1C7.2,8,7,7.8,6.7,7.6c-0.6-0.4-1.4-0.4-2.1,0
	C4.4,7.8,4.2,8,4,8.2C4,8.3,3.9,8.3,3.8,8.3c-0.1,0-0.1-0.1-0.1-0.2c0-0.4,0.1-0.8,0.4-1.1c0.7-0.9,2-1.1,2.9-0.3
	C7.1,6.8,7.2,6.9,7.3,7C7.6,7.3,7.7,7.7,7.7,8.1z"/>
<path class="st0" d="M18.3,8.1c0,0.1-0.1,0.2-0.2,0.2c-0.1,0-0.1,0-0.2-0.1c-0.2-0.2-0.4-0.4-0.6-0.6c-0.6-0.4-1.4-0.4-2.1,0
	C15,7.8,14.8,8,14.7,8.2c-0.1,0.1-0.2,0.1-0.3,0c-0.1,0-0.1-0.1-0.1-0.2c0-0.4,0.1-0.8,0.4-1.1c0.7-0.9,2-1.1,2.9-0.3
	c0.1,0.1,0.2,0.2,0.3,0.3C18.2,7.3,18.3,7.7,18.3,8.1z"/>
</svg>
