<?xml version="1.0" encoding="utf-8"?>
<svg version="1.1" id="Layer_1" xmlns="http://www.w3.org/2000/svg" xmlns:xlink="http://www.w3.org/1999/xlink" x="0px" y="0px"
	 viewBox="0 0 800 800" style="enable-background:new 0 0 800 800;" xml:space="preserve">
<style type="text/css">
	.st0{clip-path:url(#SVGID_00000018238045891524198120000002794681374164145544_);}
	.st1{clip-path:url(#SVGID_00000044896152882985818080000011630482920199722429_);}
</style>
<g>
	<g id="_x3C_Mirror_Repeat_x3E__00000087397735110153284690000003622793415046502799_">
		<g>
			<g>
				<g>
					<g>
						<g>
							<defs>
								<rect id="SVGID_1_" x="66.7" y="219.6" width="333.3" height="163.1"/>
							</defs>
							<clipPath id="SVGID_00000084515977902361944270000011480309343318599824_">
								<use xlink:href="#SVGID_1_"  style="overflow:visible;"/>
							</clipPath>
							<g style="clip-path:url(#SVGID_00000084515977902361944270000011480309343318599824_);">
								<path d="M66.9,382.3c2.9,3,89.9-15.1,103.9-15.1s193.3,13.7,208.9,13.7s21.3-20,21.3-20V228.4c0,0-26-8.8-37.4-8.8
									c-11.3,0-255.5,83.8-263.8,92.1C91.4,320.1,64,379.3,66.9,382.3z"/>
							</g>
						</g>
					</g>
				</g>
			</g>
		</g>
	</g>
	<g id="_x3C_Mirror_Repeat_x3E__00000119112359960236667730000000033181400886599836_">
		<g>
			<g>
				<g>
					<g>
						<g>
							<defs>
								<rect id="SVGID_00000170273792797768086240000008942020696225435270_" x="400" y="219.6" width="333.3" height="163.1"/>
							</defs>
							<clipPath id="SVGID_00000000908031749045582770000007515628750971804086_">
								<use xlink:href="#SVGID_00000170273792797768086240000008942020696225435270_"  style="overflow:visible;"/>
							</clipPath>
							<g style="clip-path:url(#SVGID_00000000908031749045582770000007515628750971804086_);">
								<path d="M733.1,382.3c-2.9,3-89.9-15.1-103.9-15.1s-193.3,13.7-208.9,13.7s-21.3-20-21.3-20V228.4c0,0,26-8.8,37.4-8.8
									c11.3,0,255.5,83.8,263.8,92.1C708.6,320.1,736,379.3,733.1,382.3z"/>
							</g>
						</g>
					</g>
				</g>
			</g>
		</g>
	</g>
</g>
<g>
	<g id="_x3C_Mirror_Repeat_x3E__00000174579591448857768280000003239454848150485647_">
		<g>
			<g>
				<path d="M306.2,521.8h187.6c3.3,0,5.7,3.2,4.8,6.4c-3.9,13.6-13.3,44.7-19.3,50.6c-7.7,7.7-67.7,25.6-79.3,25.6
					s-71.5-17.8-79.3-25.6c-6.1-6.1-15.4-37.1-19.3-50.6C300.5,525,302.9,521.8,306.2,521.8z"/>
			</g>
		</g>
	</g>
</g>
</svg>
