<?xml version="1.0" encoding="UTF-8"?><svg id="Layer_1" xmlns="http://www.w3.org/2000/svg" xmlns:xlink="http://www.w3.org/1999/xlink" viewBox="0 0 1000 1000"><defs><style>.cls-1{mask:url(#mask);}.cls-2{filter:url(#luminosity-noclip-2);}.cls-3{fill:#dbddd1;}.cls-4{fill:#da9e2e;}.cls-5{fill:#172837;}.cls-6{stroke:#000;stroke-miterlimit:10;stroke-width:1.792px;}</style><filter id="luminosity-noclip-2" x="-147.944" y="-147.944" width="1295.888" height="1295.888" color-interpolation-filters="sRGB" filterUnits="userSpaceOnUse"><feFlood flood-color="#fff" result="bg"/><feBlend in="SourceGraphic" in2="bg"/></filter><mask id="mask" x="-147.944" y="-147.944" width="1295.888" height="1295.888" maskUnits="userSpaceOnUse"><g class="cls-2"><g><g id="_Radial_Repeat_-5"><rect class="cls-6" x="644.428" y="322.823" width="227.685" height="870.895" transform="translate(1830.626 758.27) rotate(135)"/></g><g id="_Radial_Repeat_-6"><rect class="cls-6" x="127.887" y="322.823" width="227.685" height="870.895" transform="translate(-123.519 1465.377) rotate(-135)"/></g><g id="_Radial_Repeat_-7"><rect class="cls-6" x="127.887" y="-193.718" width="227.685" height="870.895" transform="translate(-100.128 241.73) rotate(-45)"/></g><g id="_Radial_Repeat_-8"><rect class="cls-6" x="644.428" y="-193.718" width="227.685" height="870.895" transform="translate(393.021 -465.377) rotate(45)"/></g></g></g></mask></defs><rect class="cls-3" width="1000" height="1000"/><g><g id="_Radial_Repeat_"><rect class="cls-5" x="409.472" y="458.089" width="181.055" height="344.63" rx="24.396" ry="24.396" transform="translate(1000 1260.808) rotate(180)"/></g><g id="_Radial_Repeat_-2"><rect class="cls-5" x="279.068" y="327.685" width="181.055" height="344.63" rx="24.396" ry="24.396" transform="translate(-130.404 869.596) rotate(-90)"/></g><g id="_Radial_Repeat_-3"><rect class="cls-5" x="409.472" y="197.281" width="181.055" height="344.63" rx="24.396" ry="24.396"/></g><g id="_Radial_Repeat_-4"><rect class="cls-5" x="539.876" y="327.685" width="181.055" height="344.63" rx="24.396" ry="24.396" transform="translate(1130.404 -130.404) rotate(90)"/></g></g><g class="cls-1"><path class="cls-5" d="M500,59.488c-243.295,0-440.512,197.217-440.512,440.512s197.217,440.512,440.512,440.512,440.512-197.217,440.512-440.512S743.295,59.488,500,59.488Zm0,824.314c-211.962,0-383.802-171.84-383.802-383.802S288.038,116.198,500,116.198s383.802,171.84,383.802,383.802-171.84,383.802-383.802,383.802Z"/></g><g><g id="_Radial_Repeat_-9"><path class="cls-4" d="M924.874,810.797c.482,9.011-109.136-7.092-114.522,4.289-5.386,11.38,176.515,173.936,176.515,173.936,0,0-294.329-194.486-293.27-202.695s83.169-6.804,87.01-25.878c2.224-7.822-104.736-107.506-104.736-107.506,0,0,248.522,148.843,249.004,157.854Z"/></g><g id="_Radial_Repeat_-10"><path class="cls-4" d="M189.203,924.874c-9.011,.482,7.092-109.136-4.289-114.522-11.38-5.386-173.936,176.515-173.936,176.515,0,0,194.486-294.329,202.695-293.27,8.208,1.058,6.804,83.169,25.878,87.01,7.822,2.224,107.506-104.736,107.506-104.736,0,0-148.843,248.522-157.854,249.004Z"/></g><g id="_Radial_Repeat_-11"><path class="cls-4" d="M75.126,189.203c-.482-9.011,109.136,7.092,114.522-4.289C195.034,173.534,13.133,10.978,13.133,10.978c0,0,294.329,194.486,293.27,202.695-1.058,8.208-83.169,6.804-87.01,25.878-2.224,7.822,104.736,107.506,104.736,107.506,0,0-248.522-148.843-249.004-157.854Z"/></g><g id="_Radial_Repeat_-12"><path class="cls-4" d="M810.797,75.126c9.011-.482-7.092,109.136,4.289,114.522,11.38,5.386,173.936-176.515,173.936-176.515,0,0-194.486,294.329-202.695,293.27-8.208-1.058-6.804-83.169-25.878-87.01-7.822-2.224-107.506,104.736-107.506,104.736,0,0,148.843-248.522,157.854-249.004Z"/></g></g></svg>