<?xml version="1.0" encoding="UTF-8"?><svg id="a" xmlns="http://www.w3.org/2000/svg" xmlns:xlink="http://www.w3.org/1999/xlink" viewBox="0 0 732.2 413.6462"><defs><style>.f,.g,.h,.i,.j,.k,.l,.m,.n{fill:none;}.o{letter-spacing:0em;}.p{letter-spacing:-.01em;}.q{letter-spacing:-.041em;}.r{letter-spacing:-.041em;}.s{letter-spacing:-.043em;}.t{fill:#939598;}.u,.v,.w{fill:#ac1f2d;}.x{fill:#424243;}.y{letter-spacing:-.009em;}.z{font-family:SofiaPro-Light, 'Sofia Pro';font-weight:300;}.z,.w{font-size:12px;}.z,.w,.aa{isolation:isolate;}.z,.aa{fill:#414042;}.g{stroke:#86d0cb;stroke-width:5px;}.g,.v{stroke-linejoin:round;}.g,.v,.j,.k,.l,.m,.n{stroke-linecap:round;}.ab{letter-spacing:-.018em;}.ac{letter-spacing:-.012em;}.v{stroke-width:2.0154px;}.v,.i{stroke:#ac1f2d;}.ad{letter-spacing:-.007em;}.ae{letter-spacing:-.025em;}.af{letter-spacing:-.006em;}.ag{letter-spacing:-.019em;}.h{stroke-width:10px;}.h,.i,.j,.k,.l,.m,.n{stroke-miterlimit:10;}.h,.j,.k,.l,.m,.n{stroke:#939598;}.ah{letter-spacing:0em;}.ai{letter-spacing:-.028em;}.aj{letter-spacing:-.004em;}.ak{letter-spacing:-.002em;}.i{stroke-width:2px;}.j,.k,.l,.m,.n{stroke-width:4px;}.al{letter-spacing:-.008em;}.am{letter-spacing:-.007em;}.an{letter-spacing:-.011em;}.k{stroke-dasharray:0 0 23.8516 23.8516;}.w{font-family:SofiaPro-Bold, 'Sofia Pro';font-weight:700;}.ao{clip-path:url(#d);}.l{stroke-dasharray:0 0 12.8915 12.8915;}.aa{font-family:SofiaPro-Regular, 'Sofia Pro';font-size:24px;}.ap{letter-spacing:0em;}.aq{letter-spacing:-.017em;}.ar{letter-spacing:-.013em;}.m{stroke-dasharray:0 0 24 24;}.n{stroke-dasharray:0 0 22.2984 22.2984;}</style><clipPath id="d"><polygon class="f" points="213.5 192.669 228.2 177.0691 261.6 213.5691 290.7 188.5691 317.1 199.9691 294 251.169 268.4 246.0691 251 233.5691 213.5 192.669"/></clipPath></defs><g id="c"><g><path class="j" d="M284.2,230.2691c0,4-.2,8-.5,12"/><path class="l" d="M281.9,255.0691c-1.2,6.4-2.8,12.6-4.9,18.7"/><path class="j" d="M274.8,279.7691c-1.5,3.7-3.1,7.4-4.9,10.9"/><polygon class="t" points="264.9 285.8691 265.3 299.0691 276.5 292.0691 264.9 285.8691"/></g><g><path class="j" d="M231.8,336.5691c-3.2,2.4-6.4,4.7-9.8,6.9"/><path class="k" d="M200.8,354.3691c-15.6,6.4-32.7,9.9-50.6,9.9-74,0-134-60-134-134S76.2,96.2691,150.2,96.2691c30.7,0,59,10.3,81.6,27.7"/><path class="j" d="M241,131.7691c2.9,2.7,5.8,5.6,8.5,8.5"/><polygon class="t" points="243.1 143.1691 255.5 147.4691 253.1 134.5691 243.1 143.1691"/></g><path class="x" d="M711,101.8691h-141.8c-2.3,0-4.1,1.8-4.1,4.1v100.8c0,2.3,1.8,4.1,4.1,4.1h59.8l-.9,9.7c0,.6-.7,5.9-10.8,5.9-1.4,0-2.5,1.1-2.5,2.5s1.1,2.5,2.5,2.5h45.6c1.4,0,2.5-1.1,2.5-2.5s-1.1-2.5-2.5-2.5c-10.1,0-10.8-5.3-10.8-6.1l-.9-9.6h58.2c1.5,0,5.7-1,5.7-4.1V106.0691c0-2.3-1.8-4.2-4.1-4.2Zm-5.9,83.6h-130.7l.2-74.2h130.7l-.2001,74.2h0Z"/><g><circle class="t" cx="385.5" cy="103.0691" r="13.3"/><g><path class="t" d="M391.2,137.5691c0,1.2,1,2.2,2.2,2.2s2.2-1,2.2-2.2-1-2.2-2.2-2.2-2.2,1-2.2,2.2Zm2.3-1.6c.9,0,1.7,.7,1.7,1.7,0,.9-.7,1.7-1.7,1.7-.9,0-1.7-.7-1.7-1.7s.8-1.7,1.7-1.7Z"/><circle class="t" cx="381.8" cy="137.9691" r=".4"/><path class="t" d="M393.3,120.6691c.9,2.1,2.4,6.7,1.5,13.2,1.5,.6,2.6,2,2.6,3.7,0,2.2-1.8,4-4,4s-4-1.8-4-4c0-2.1,1.6-3.8,3.7-4,1.1-8.3-1.9-13.2-1.9-13.3-.1-.1-.1-.2-.1-.3-1.7-.8-3.6-1.2-5.6-1.2-2.1,0-4.2,.5-6,1.4h0v11.2c1.1,.2,1.9,.6,2.5,1.3,1.1,1.4,1.1,3.3,1,4.1,.3,.3,.5,.7,.5,1.1,0,.9-.8,1.7-1.7,1.7s-1.7-.8-1.7-1.7c0-.7,.5-1.4,1.2-1.6,0-.7,0-1.8-.7-2.5-.4-.5-1.1-.8-2.1-.8s-1.6,.3-2.1,.8c-.6,.7-.7,1.9-.7,2.5,.7,.2,1.1,.8,1.1,1.6,0,.9-.7,1.7-1.7,1.7-.9,0-1.7-.8-1.7-1.7,0-.4,.2-.9,.5-1.2-.1-.8,0-2.7,1.1-4.1,.6-.7,1.5-1.2,2.6-1.3v-10.7c-6.5,1.9-16.1,7.4-16.1,18.4v27.1c0,2.4,2,4.4,4.4,4.4s4.4-2,4.4-4.4v-27.1c0-1.8,.6-3.3,1.4-4.6v96.7c0,3.1,2.5,5.6,5.6,5.6s5.6-2.5,5.6-5.6v-49c.8,.2,1.6,.2,2.5,.2,.8,0,1.7-.1,2.5-.2v48.6c0,3.1,2.5,5.6,5.6,5.6s5.6-2.5,5.6-5.6v-96.3c.8,1.3,1.4,2.8,1.4,4.6v27.1c0,2.4,2,4.4,4.4,4.4s4.4-2,4.4-4.4v-27.1c0-10.8-9.4999-16.3-15.9999-18.3Z"/><circle class="t" cx="375.3" cy="137.9691" r=".4"/><circle class="t" cx="393.5" cy="137.5691" r=".8"/></g></g><g class="ao"><circle class="h" cx="270.4" cy="201.7691" r="30.1"/></g><g><circle class="t" cx="220.1" cy="148.3691" r="11.8"/><path class="t" d="M294.6,170.2691l-6.9-3.1c-5.5-2.4-9.2,1-9.2,1l-14.9,13.6-18.6-20.3c-3.6-3.9-9.7-4.2-13.7-.6-3.9,3.6-4.2,9.7-.6,13.7l18.6,20.3,4.3,4.7c2.4,2.6,6.5,2.8,9.1,.4l21-19.2,29,12.8c3.6,1.6,7.7,0,9.3-3.6,1.6-3.6,0-7.7-3.6-9.3l-10.1-4.5-13.7-5.9Z"/></g><g><circle class="t" cx="393.6" cy="316.0691" r="2.2"/><path class="t" d="M421.3,300.7691H254.8c-1.8,0-3.2,1-3.2,2.2v26.2c0,1.2,1.4,2.2,3.2,2.2h166.4c1.8,0,3.2-1,3.2-2.2v-26.2c.1-1.2-1.4-2.2-3.1-2.2Zm-109.7,17.5h-46c-1.2,0-2.1-1-2.1-2.2s.9-2.2,2.1-2.2h46c1.2,0,2.1,1,2.1,2.2s-1,2.2-2.1,2.2Zm82,4.3c-3.6,0-6.6-2.9-6.6-6.6s2.9-6.6,6.6-6.6c3.6,0,6.6,2.9,6.6,6.6s-3,6.6-6.6,6.6Z"/></g><path class="u" d="M161.9,288.169v38.9c0,2.2-1.8,4.1-4.1,4.1h-19c-2.2,0-4.1-1.8-4.1-4.1v-38.9c0-2.2,1.8-4.1,4.1-4.1h18.9c2.4,0,4.2,1.8,4.2,4.1Zm-2,35.6v-32.7c0-.9-.8-1.7-1.7-1.7h-19.8c-.9,0-1.7,.8-1.7,1.7v32.7c0,.9,.8,1.7,1.7,1.7h19.9c.9,0,1.6-.7,1.6-1.7Zm-13.9-36h4.5c.2,0,.4-.2,.4-.4h0c0-.2-.2-.4-.4-.4h-4.5c-.2,0-.4,.2-.4,.4h0c0,.2,.2,.4,.4,.4Zm3.6,41.6c.1-.2,.2-.5,.2-.7,0-.9-.7-1.6-1.6-1.6s-1.6,.7-1.6,1.6c0,.3,.1,.5,.2,.7,.3,.5,.8,.8,1.4,.8s1.1-.4,1.4-.8Zm-8.3-29.7h14.3c.9,0,1.4,.6,1.4,1.4v8.6c0,.6-.6,1.4-1.4,1.4h-7.2l-5.7,5.7v-5.7h-1.4c-.9,0-1.4-.9-1.4-1.4v-8.6c0-.8,.5-1.4,1.4-1.4Z"/><line class="g" x1="271.7" y1="200.9691" x2="265.3" y2="206.4691"/><path class="u" d="M593,120.1691c-1.9,0-3.4,1.5-3.4,3.3v6.5c-5.5,2.1-9.4,7.4-9.4,13.5,0,.6,.5,1.1,1.1,1.1h13.7001c.6,0,1.1-.5,1.1-1.1v-13.4c0-.6-.5-1.1-1.1-1.1-1.1,0-2.1,.1-3.2,.3v-5.8c0-.6,.5-1.1,1.1-1.1h23.3v6.7c0,1.8,1.5,3.3,3.4,3.3h6.9v40.9c0,.6-.5,1.1-1.1,1.1h-32.4c-.6,0-1.1-.5-1.1-1.1v-13.1c2.1,1.2,4.6,1.8,7.2,1.8,8.2,0,14.8-6.5,14.8-14.5s-6.7-14.5-14.8-14.5c-.6,0-1.1,.5-1.1,1.1v12.3h-12.6c-.6,0-1.1,.5-1.1,1.1,0,4.5,2.1,8.6,5.4,11.2v14.6c0,1.8,1.5,3.3,3.4,3.3h32.4c1.9,0,3.4-1.5,3.4-3.3v-42c0-.3-.1-.6-.3-.8l-10.2-10c-.2-.2-.5-.3-.8-.3h-24.6002Zm25.5,3.7l6.4,6.3h-5.3c-.6,0-1.1-.5-1.1-1.1v-5.2h0Zm-9.8,15.7c1.8,2.1,2.9,4.9,2.9,7.9,0,6.8-5.6,12.3-12.6,12.3-6.6,0-12-4.9-12.5-11.2h12.5c.3,0,.6-.1,.8-.3h0l8.9-8.7Z"/><path class="i" d="M673.7,215.2691c-1.9,0-3.4,1.5-3.4,3.4v23.7c0,1.9,1.5,3.4,3.4,3.4h33.9c1.9,0,3.4-1.5,3.4-3.4v-23.7c0-1.9-1.5-3.4-3.4-3.4h-33.9Z"/><path class="v" d="M673.7,217.0691h2.2l14.1,11.8808c.3,.3046,.8,.3046,1.1,0l14.1-11.8808h2.2c1,0,1.7,.7108,1.7,1.7263v24.0661c0,1.0154-.7,1.7263-1.7,1.7263h-1.7v-22.3399c0-.5077-.4-.8123-.8-.8123-.2,0-.4,.1016-.5,.2031l-13.8,11.5761-13.8-11.5761c-.2-.1016-.3-.2031-.5-.2031-.5,0-.8,.4062-.8,.8123v22.3399h-1.7c-1,0-1.7-.7108-1.7-1.7263v-24.0661c-.1-1.0155,.7-1.7263,1.6-1.7263Z"/></g><g id="e"><text class="z" transform="translate(207.1182 261.9457)"><tspan x="0" y="0">Senso</tspan><tspan class="ai" x="32.4956" y="0">r</tspan><tspan x="36.6475" y="0" xml:space="preserve"> Da</tspan><tspan class="an" x="55.8833" y="0">t</tspan><tspan x="59.3633" y="0">a</tspan></text><text class="z" transform="translate(135.6079 349.0191)"><tspan x="0" y="0">SMS</tspan></text><text class="z" transform="translate(674.0503 261.0699)"><tspan class="ad" x="0" y="0">E</tspan><tspan x="6.6123" y="0">mail</tspan></text><text class="z" transform="translate(323.0628 345.3254)"><tspan x="0" y="0">Ser</tspan><tspan class="ar" x="18" y="0">v</tspan><tspan x="23.8438" y="0">e</tspan><tspan class="ai" x="30.5879" y="0">r</tspan></text><g><path class="u" d="M63,288.4691c-.4-.4-.4-1,0-1.4l1.9-2c1-1,1-2.3,0-3.4l-1.9-2c-.4-.4-.4-1,0-1.4l1.9-2c1-1,1-2.3,0-3.4l-1.9-2c-.4-.4-.4-1,0-1.4l1.9-2c1-1,1-2.3,0-3.4l-1.9-2c-.4-.4-.4-1,0-1.4l3-3.1c.4-.4,.2-1-.5-1.3s-1.7-.1-2.1,.3l-3,3c-1,1-1,2.3,0,3.4l1.9,2c.4,.4,.4,1,0,1.4l-1.9,2c-1,1-1,2.3,0,3.4l1.9,2c.4,.4,.4,1,0,1.4l-1.9,2c-1,1-1,2.3,0,3.4l1.9,2c.4,.4,.4,1,0,1.4l-1.9,2c-1,1-1,2.3,0,3.3l3,3.1c.3,.3,.8,.4,1.3,.4,.3,0,.5-.1,.8-.2,.7-.3,1-.9,.5-1.3l-3-2.8Z"/><path class="u" d="M60.7,265.669c.4-.5,.2-1.1-.5-1.4-.6-.3-1.5-.1-1.9,.4l-2.8,3.4c-1,1.1-1,2.5,0,3.6l1.8,2.1c.4,.5,.4,1.1,0,1.5l-1.8,2.1c-1,1.1-1,2.5,0,3.6l2.8,3.4c.2,.3,.7,.5,1.2,.5,.2,0,.5-.1,.7-.2,.6-.3,.9-.9,.5-1.4l-2.8-3.4c-.4-.5-.4-1.1,0-1.5l1.8-2.1c1-1.1,1-2.5,0-3.6l-1.8-2.1c-.4-.5-.4-1.1,0-1.5l2.8-3.4Z"/><g><path class="u" d="M74.1,291.4691c-.4,.4-.2,1,.5,1.3,.3,.1,.5,.2,.8,.2,.5,0,1-.2,1.3-.4l3-3.1c1-1,1-2.3,0-3.3l-1.9-2c-.4-.4-.4-.9,0-1.4l1.9-2c1-1,1-2.3,0-3.4l-1.9-2c-.4-.4-.4-.9,0-1.4l1.9-2c1-1,1-2.3,0-3.4l-1.9-2c-.4-.4-.4-.9,0-1.4l1.9-2c1-1,1-2.3,0-3.4l-3-3c-.4-.4-1.4-.6-2.1-.3s-1,.9-.5,1.3l3,3.1c.4,.4,.4,.9,0,1.4l-1.9,2c-1,1-1,2.3,0,3.4l1.9,2c.4,.4,.4,.9,0,1.4l-1.9,2c-1,1-1,2.3,0,3.4l1.9,2c.4,.4,.4,.9,0,1.4l-1.9,2c-1,1-1,2.3,0,3.4l1.9,2c.4,.4,.4,.9,0,1.4l-3,2.8Z"/><path class="u" d="M82.4,269.0691c.4,.4,.4,1,0,1.5l-1.8,2.1c-1,1.1-1,2.5,0,3.6l1.8,2.1c.4,.4,.4,1,0,1.5l-2.8,3.4c-.4,.5-.2,1.1,.5,1.4,.2,.1,.5,.2,.7,.2,.5,0,1-.2,1.2-.5l2.8-3.4c1-1.1,1-2.5,0-3.6l-1.8-2.1c-.4-.4-.4-1,0-1.5l1.8-2.1c1-1.1,1-2.5,0-3.6l-2.8-3.4c-.4-.5-1.3-.6-1.9-.4-.6,.3-.9,.9-.5,1.4l2.8,3.4Z"/></g></g><text class="aa" transform="translate(33.6991 72.1509)"><tspan class="ab" x="0" y="0">R</tspan><tspan class="o" x="14.4004" y="0">eal</tspan><tspan class="ab" x="48.1196" y="0">-</tspan><tspan x="59.208" y="0">time </tspan><tspan class="r" x="113.2549" y="0">F</tspan><tspan x="125.0396" y="0">eedbac</tspan><tspan class="ag" x="207.8145" y="0">k</tspan></text><text class="aa" transform="translate(358.7896 72.1509)"><tspan class="ab" x="0" y="0">R</tspan><tspan class="am" x="14.4004" y="0">e</tspan><tspan x="27.6724" y="0">flecti</tspan><tspan class="ac" x="80.4956" y="0">v</tspan><tspan x="92.3037" y="0">e </tspan><tspan class="q" x="111.8154" y="0">F</tspan><tspan class="ap" x="123.5996" y="0">eedbac</tspan><tspan class="ag" x="206.375" y="0">k</tspan></text><text class="z" transform="translate(45.5456 305.179)"><tspan class="ak" x="0" y="0">V</tspan><tspan x="6.5039" y="0">ib</tspan><tspan class="ae" x="16.5718" y="0">r</tspan><tspan x="20.7598" y="0">ation</tspan></text><text class="z" transform="translate(46.5549 219.6764)"><tspan x="0" y="0">Lig</tspan><tspan class="am" x="15.876" y="0">h</tspan><tspan class="y" x="22.6196" y="0">t</tspan></text><text class="z" transform="translate(97.7113 156.8017)"><tspan x="0" y="0">Audio</tspan></text><path class="u" d="M73.4,191.2691v-.2c-.1-.7-.5-1.1-1.2-1.1h-.9v-9.3c0-3.8-1.9-7.3-5-9.5-3.1-2.1-7.1-2.6-10.6-1.3-3.5,1.3-6.2,4.3-7.1,7.9-.3,1.1-.4,2.2-.4,3.4v8.8h-1c-.6,0-1.1,.5-1.1,1.1v3.8c0,.6,.5,1,1.1,1h4.3v8c0,.7,.6,1.4,1.4,1.4,.7,0,1.4-.6,1.4-1.4v-8h11v5.1c0,.7,.6,1.4,1.4,1.4,.7,0,1.4-.6,1.4-1.4v-5.1h4.4c.6,0,1.1-.5,1.1-1.1v-3.5h-.2Zm-13.7-16.5h-.8q.1,0,0,0h-.1c-.4,.1-.7,.2-1.1,.3-.1,0-.3,.1-.3,.1,0,0,.2-.1,.1,0,0,0-.1,0-.1,.1-.1,.1-.3,.1-.4,.2-.1,.1-.3,.2-.4,.2s-.1,.1-.2,.1l-.2,.1h0l-.1,.1q-.1,.1-.2,.2c-.1,.1-.2,.2-.3,.3-.1,.1-.2,.2-.3,.4l-.1,.1h0s0,.1-.1,.1c-.2,.3-.4,.6-.5,.8,0,.1-.1,.2-.1,.2,0,0,0,.1-.1,.1v0l-.1,.2c0,.1-.1,.2-.1,.2-.1,.3-.2,.7-.2,1v.1h0v.8c0,.5-.4,.9-.9,.9s-.9-.4-.9-.9c0-.9,.2-1.8,.5-2.6,.6-1.5,1.5-2.8,2.9-3.7,1.3-.9,2.8-1.4,4.3-1.4,.5,0,.9,.4,.9,.9-.2,.7-.6,1.0999-1.1,1.0999Z"/><path class="u" d="M58.4,162.169v4c0,.7,.6,1.4,1.4,1.4,.7,0,1.4-.6,1.4-1.4v-4c0-.7-.6-1.4-1.4-1.4s-1.4,.6-1.4,1.4h0Z"/><path class="u" d="M47.2,167.4691c.8,.8,1.7,1.7,2.5,2.5,.1,.1,.2,.2,.4,.4,.5,.5,1.4,.5,1.9,0s.5-1.4,0-1.9c-.8-.8-1.7-1.7-2.5-2.5-.1-.1-.2-.2-.4-.4-.5-.5-1.4-.5-1.9,0s-.5,1.3,0,1.9h0Z"/><path class="u" d="M70.3,165.4691c-.8,.8-1.7,1.7-2.5,2.5-.1,.1-.2,.2-.4,.4-.5,.5-.5,1.4,0,1.9s1.4,.5,1.9,0c.8-.8,1.7-1.7,2.5-2.5,.1-.1,.2-.2,.4-.4,.5-.5,.5-1.4,0-1.9-.5-.5-1.4-.5-1.9,0h0Z"/><path class="u" d="M128.6,114.9691v.2h0v2.3h0v16.1c0,.1,0,.3-.1,.4,0,.1-.1,.1-.1,.2,0-.1,.1-.1,.1-.2,0,.2,.1,.5,.1,.7-.2,2.7-2.4,4.7-5.1,4.5-2.7,.1-4.9-1.9-5.1-4.5,.2-2.7,2.4-4.7,5.1-4.5,1,0,2,.3,2.8,.8h0v-13h0l-18.1,4.3h0v14.6c0,.1,0,.3-.1,.4,0,.1-.1,.1-.1,.2,0-.1,.1-.1,.1-.2,0,.2,.1,.5,.1,.7-.2,2.7-2.4,4.7-5.1,4.5-2.7,.1-4.9-1.9-5.1-4.5,.2-2.7,2.4-4.7,5.1-4.5,1,0,2,.3,2.8,.8h0v-11.5h0v-2.3h0v-2.1c0-1.6,1.1-3,2.7-3.3l15.8-3.5c1.8-.4,3.6,.7,4.1,2.6,.1,.3,.1,.6,.1,.8Z"/><text class="w" transform="translate(432.7786 145.3102)"><tspan class="aj" x="0" y="0">R</tspan><tspan x="7.5718" y="0">is</tspan><tspan class="aq" x="16.2959" y="0">k</tspan><tspan class="ah" x="22.2598" y="0"> </tspan><tspan class="y" x="25.1152" y="0">o</tspan><tspan class="af" x="31.9194" y="0">f</tspan><tspan x="36.2153" y="0"> </tspan><tspan class="al" x="39.0713" y="0">I</tspan><tspan x="42.6592" y="0">njur</tspan><tspan class="p" x="64.811" y="0">y</tspan></text><text class="z" transform="translate(618.2793 244.8976)"><tspan class="s" x="0" y="0">W</tspan><tspan x="10.3438" y="0">ebsi</tspan><tspan class="an" x="32.3037" y="0">t</tspan><tspan x="35.7837" y="0">e</tspan></text><g><line class="j" x1="442.3" y1="158.7691" x2="454.3" y2="158.7691"/><line class="n" x1="476.5" y1="158.7691" x2="510" y2="158.7691"/><line class="j" x1="521.1" y1="158.7691" x2="533.1" y2="158.7691"/><polygon class="t" points="444.2 165.3691 432.8 158.7691 444.2 152.169 444.2 165.3691"/><polygon class="t" points="531.2 165.3691 542.6 158.7691 531.2 152.169 531.2 165.3691"/></g><g><path class="m" d="M639.3,283.0691c-18.6,19.5-99.3,34.2-197.6,35.1"/><polygon class="t" points="632.2 281.3691 643.4 274.4691 643.8 287.669 632.2 281.3691"/><polygon class="t" points="443.6 311.4691 432.3 318.2691 443.7 324.669 443.6 311.4691"/></g></g></svg>