<?xml version="1.0" encoding="utf-8"?>
<!-- Generator: Adobe Illustrator 27.0.0, SVG Export Plug-In . SVG Version: 6.00 Build 0)  -->
<svg version="1.1" id="Layer_1" xmlns="http://www.w3.org/2000/svg" xmlns:xlink="http://www.w3.org/1999/xlink" x="0px" y="0px"
	 viewBox="0 0 337.5 104.9" style="enable-background:new 0 0 337.5 104.9;" xml:space="preserve">
<style type="text/css">
	.st0{fill:#4E2A84;}
</style>
<g>
	<polygon class="st0" points="1.4,2.8 1.4,4.3 5.2,8.5 5.2,37.5 0.1,38.9 0.1,40.6 13.8,40.6 13.8,38.9 9.5,37.7 8.4,36.4 8.4,12.2 
		32.5,40.9 34.6,40.9 34.6,6.5 39.7,4.9 39.7,3.1 25.7,3.1 25.7,5.1 30.2,6.2 31.2,7.6 31.2,30.5 31.2,30.5 30.9,30.5 7.6,2.8 	"/>
	<path class="st0" d="M53.7,41.2c-6.8,0-13.3-4.4-13.3-13.6c0-9.2,6.9-13.9,13.3-13.9c6.7,0,13.4,4.2,13.4,13.4
		C67.1,36,60,41.2,53.7,41.2z M61.8,27.9c0-6.3-3.5-11.7-8.9-11.7c-4.9,0-7.3,4.2-7.3,10.6c0,6.3,3.1,11.9,8.8,11.9
		C59.3,38.7,61.8,34.2,61.8,27.9z"/>
	<path class="st0" d="M137.7,25.2c0-6.3-3.6-7.6-7.7-7.6c-3.5,0-5.8,2.6-5.8,2.6l0,4.2v12.1l1.1,1.4l3.7,1.3l0,1.4h-13.2v-1.5
		l3.7-1.4V10.4c0-4.9-1.2-6.3-4-6.3V2.8l8.4-2.8h0.6c0,0-0.3,5.8-0.3,10.2v7.9c0,0,5.4-4.4,9.2-4.4c4.6,0,8.9,1.9,8.9,8.8l0,14
		l1.1,1.4l3.7,1.3v1.4h-13.2v-1.5l3.6-1.4L137.7,25.2z"/>
	<path class="st0" d="M192.7,26c0,7.9,4.5,11.2,9.6,11.2c3.2,0,7-1.3,7-1.3l0.6,1.1c-1.4,1.4-5.1,4.2-9.9,4.2
		c-6.5,0-12.2-4.8-12.2-13.6c0-8,5.5-13.9,12.5-13.9c5.4,0,9.6,3.2,9.6,9.3c0,1.6-0.3,3-0.3,3H192.7z M201,23.9
		c2.7-0.1,3.7-0.6,3.7-3.4c0-2.4-1.7-4.2-5.3-4.2c-3.8,0-6.7,3.3-6.7,7.9L201,23.9z"/>
	<path class="st0" d="M216.6,40.2c-0.4-0.2-1.4-0.7-1.5-1.9l-0.3-5.4h2.5c0.7,3.7,3.2,6.1,6.4,6.1c3.3,0,4.6-1.7,4.6-4
		c0-2.1-1.8-3.3-3.9-4.4l-2.9-1.5c-4.1-2.1-6.2-3.8-6.2-7.9c0-5.1,3.7-7.5,9.4-7.5c4,0,7.1,1.5,7.1,1.5l-0.7,6.6h-2.3
		c0-4.1-1.7-5.7-5.2-5.7c-2.3,0-4.5,0.9-4.5,3.2c0,1.8,0.7,2.6,5.2,4.9l2.6,1.3c4.6,2.4,5.9,4.4,5.9,8.2c0,4.6-4.6,7.4-9.2,7.4
		C220.8,41.2,218.3,40.9,216.6,40.2z"/>
	<path class="st0" d="M262.6,26c0,7.9,4.5,11.2,9.6,11.2c3.2,0,7-1.3,7-1.3l0.6,1.1c-1.4,1.4-5.2,4.2-9.9,4.2
		c-6.5,0-12.2-4.8-12.2-13.6c0-8,5.6-13.9,12.5-13.9c5.4,0,9.6,3.2,9.6,9.3c0,1.6-0.3,3-0.3,3H262.6z M271,23.9
		c2.7-0.1,3.7-0.6,3.7-3.4c0-2.4-1.7-4.2-5.3-4.2c-3.8,0-6.7,3.3-6.7,7.9L271,23.9z"/>
	<path class="st0" d="M333.8,37.9l-1.1-1.4l0.1-14.3c0-6.6-4.3-8.5-8.7-8.5c-3.7,0-9,4.4-9,4.4c0-2.4,0.1-4.5,0.1-4.5h-0.5l-8.3,3
		v1.4c3.2,0,4,2.8,4,7.9l0,11.9l-3.7,1.4v1.5h13l0.1-1.4l-3.7-1.3l-1.1-1.4V20.3c0,0,2-2.7,5.6-2.7c3.7,0,7.5,1.3,7.5,7.6L328,37.8
		l-3.6,1.4v1.5h13l0.1-1.4L333.8,37.9z"/>
	<path class="st0" d="M172.2,40.9l-6.1-16.8l-7,16.8h-2.4L150,20.1c-1-2.6-1.5-4.1-3.3-4.1v-1.6h11.2V16l-3.4,1.1l5.1,17.2l4.5-10.8
		l1-2.7l-1.5-4.4l-1.9-0.5v-1.6h10.8v1.7l-3.4,1l5.7,17.2l6-17.1l-3.9-1.4v-1.5h10.1V16c-2.3,0.3-3.5,0.9-5.3,5.5l-6.8,19.4H172.2z"
		/>
	<path class="st0" d="M111.9,36.7c0,0-1.6,1-4,1c-2.5,0-4.9-1.4-4.8-4.9l0.2-14.8h8.4v0h0.1l0.1-0.9l0,0l0.6-4.6l-1.1-0.2l-0.8,1.8
		l-0.5,0.4l-6.7,0.3v0l-0.1,0V7.9l-3.3,0.6l-1.4,6.4l-4.6,0.5v2.2c2.5,0,4.6,0.2,4.6,2.7s-0.2,10.1-0.2,13.1c0,5.8,2.2,7.9,5.9,7.9
		c3.2,0,5.8-1.3,8.1-3.2L111.9,36.7z"/>
	<path class="st0" d="M254.3,36.7c0,0-1.6,1-4,1c-2.5,0-4.9-1.4-4.8-4.9l0.2-14.8h8.4l0,0h0l0.1-0.9l0,0l0.6-4.6l-1.1-0.2l-0.8,1.8
		l-0.5,0.4l-6.7,0.3v0h0V7.9l-3.3,0.6l-1.4,6.4l-4.6,0.5v2.2c2.6,0,4.6,0.2,4.6,2.7s-0.2,10.1-0.2,13.1c0,5.8,2.2,7.9,5.9,7.9
		c3.2,0,5.8-1.3,8.2-3.2L254.3,36.7z"/>
	<path class="st0" d="M90.1,14L90.1,14L90.1,14c0,0-1-0.3-2.8-0.3c-4,0-8.1,6.2-8.1,6.2c0-3.5,0.1-6.4,0.1-6.4h-0.5l-8.1,3v1.4
		c3.1,0,4,2.8,4,7.5v12.3L71,39.1v1.5h13l0-1.4l-3.7-1.3l-1.1-1.4V24.4c0-3.7,2.9-5.8,6.1-5.8c0.7,0,1.3,0.2,1.9,0.4l0.9,1.3
		l1.1,0.1L90.1,14L90.1,14L90.1,14z"/>
	<path class="st0" d="M303.2,14L303.2,14L303.2,14c0,0-1-0.3-2.8-0.3c-4,0-8.1,6.2-8.1,6.2c0-3.5,0.1-6.4,0.1-6.4h-0.5l-8.1,3v1.4
		c3.1,0,4,2.8,4,7.5v12.3l-3.7,1.4v1.5h13l0-1.4l-3.7-1.3l-1.1-1.4V24.4c0-3.7,2.9-5.8,6.1-5.8c0.7,0,1.3,0.2,1.9,0.4l0.9,1.3
		l1.1,0.1L303.2,14L303.2,14L303.2,14z"/>
</g>
<g>
	<path class="st0" d="M0,46.6h337.5v1.9H0V46.6z"/>
</g>
<g>
	<path class="st0" d="M19.6,75.4V57.5L13,75.1h-2.1L4.3,57.3v18.1H1.8V54.1h3.8L12,71.4l6.4-17.3h3.8v21.3H19.6z"/>
	<path class="st0" d="M38,74.1c-1.1,1.1-2.5,1.7-4.4,1.7c-2.7,0-4.5-1.3-5.5-2.8c-0.8-1.2-1.3-2.8-1.3-5.1c0-2.3,0.5-3.9,1.3-5.1
		c1.1-1.6,2.8-2.8,5.5-2.8c1.8,0,3.3,0.6,4.3,1.6c1,1,1.7,2.2,1.8,3.9h-2.6C37,64.3,36.6,63.5,36,63c-0.6-0.6-1.5-0.9-2.5-0.9
		c-1.2,0-2,0.4-2.6,1c-1.2,1-1.5,2.9-1.5,4.8c0,1.9,0.3,3.8,1.5,4.8c0.7,0.6,1.5,1,2.6,1c1,0,2-0.4,2.6-1c0.5-0.6,0.9-1.3,1-2.2h2.6
		C39.6,71.9,39,73.1,38,74.1z"/>
	<path class="st0" d="M56.9,73.5c-1.3,1.3-3.4,2.3-5.7,2.3c-2.1,0-4.2-0.8-5.8-2.3c-2.3-2.2-2.7-5.4-2.7-8.8c0-3.4,0.4-6.5,2.7-8.8
		c1.5-1.5,3.6-2.3,5.8-2.3c2.3,0,4.4,0.9,5.7,2.2c1.2,1.3,2,2.9,2.1,4.9h-2.8c0-1.2-0.5-2.2-1.2-3c-0.8-0.9-2.2-1.6-3.8-1.6
		c-1.4,0-2.8,0.6-3.9,1.6c-1.7,1.8-1.8,4.7-1.8,6.9c0,2.2,0.1,5.1,1.8,6.9c1,1,2.4,1.6,3.9,1.6c1.6,0,3-0.7,3.9-1.6
		c0.7-0.8,1.1-1.9,1.2-3.1H59C58.9,70.6,58.1,72.3,56.9,73.5z"/>
	<path class="st0" d="M75.9,73.5c-1.5,1.5-3.6,2.3-5.7,2.3c-2.1,0-4.2-0.8-5.7-2.3c-2.3-2.2-2.7-5.4-2.7-8.8c0-3.4,0.4-6.5,2.7-8.8
		c1.5-1.5,3.6-2.3,5.7-2.3c2.1,0,4.2,0.8,5.7,2.3c2.3,2.2,2.7,5.4,2.7,8.8C78.7,68.2,78.2,71.3,75.9,73.5z M74.1,57.9
		c-1-1.1-2.4-1.6-3.9-1.6c-1.4,0-2.8,0.5-3.9,1.6c-1.7,1.8-1.8,4.7-1.8,6.9c0,2.2,0.1,5.1,1.8,6.9c1,1,2.4,1.6,3.9,1.6
		c1.4,0,2.8-0.5,3.9-1.6c1.7-1.8,1.8-4.7,1.8-6.9C75.9,62.6,75.8,59.7,74.1,57.9z"/>
	<path class="st0" d="M95.8,75.4l-4-8.8h-5.9v8.8h-2.7V54.1h8.3c2.5,0,4.2,0.7,5.4,1.9c1,1.1,1.7,2.5,1.7,4.3c0,1.9-0.6,3.1-1.6,4.2
		c-0.6,0.7-1.5,1.2-2.5,1.5l4.3,9.4H95.8z M91.6,56.6h-5.7v7.5h5.7c2.5,0,4.3-1,4.3-3.7S94.1,56.6,91.6,56.6z"/>
	<path class="st0" d="M121,75.4V57.5l-6.6,17.6h-2.1l-6.6-17.8v18.1h-2.5V54.1h3.8l6.4,17.3l6.4-17.3h3.8v21.3H121z"/>
	<path class="st0" d="M129.5,75.4V54.1h2.7v21.3H129.5z"/>
	<path class="st0" d="M151,73.5c-1.3,1.3-3.4,2.3-5.7,2.3c-2.1,0-4.2-0.8-5.8-2.3c-2.3-2.2-2.7-5.4-2.7-8.8c0-3.4,0.4-6.5,2.7-8.8
		c1.5-1.5,3.6-2.3,5.8-2.3c2.3,0,4.4,0.9,5.7,2.2c1.2,1.3,2,2.9,2.1,4.9h-2.8c0-1.2-0.5-2.2-1.2-3c-0.8-0.9-2.2-1.6-3.8-1.6
		c-1.4,0-2.8,0.6-3.9,1.6c-1.7,1.8-1.8,4.7-1.8,6.9c0,2.2,0.1,5.1,1.8,6.9c1,1,2.4,1.6,3.9,1.6c1.6,0,3-0.7,3.9-1.6
		c0.7-0.8,1.1-1.9,1.2-3.1h2.8C153,70.6,152.2,72.3,151,73.5z"/>
	<path class="st0" d="M170.6,75.4l-6.4-11l-4.3,5v6h-2.7V54.1h2.7v11.3l9.7-11.3h3.3l-6.9,8.1l7.7,13.2H170.6z"/>
	<path class="st0" d="M196.8,73.7c-1.5,1.4-3.8,2.1-6,2.1c-2.6,0-4.7-0.7-6.1-2c-1.3-1.3-2.3-3.1-2.3-5.1h2.8c0,1.3,0.6,2.5,1.5,3.4
		c1,0.9,2.6,1.3,4.1,1.3c1.6,0,3-0.3,4-1.2c0.7-0.6,1.1-1.3,1.1-2.5c0-1.7-1-3-3.6-3.4l-3.4-0.5c-3.2-0.5-5.7-2.2-5.7-5.6
		c0-1.6,0.7-3.1,1.9-4.2c1.5-1.4,3.4-2.1,5.6-2.1c2.1,0,4.1,0.7,5.5,2c1.3,1.2,2,2.8,2,4.6h-2.8c-0.1-1.1-0.5-2-1.1-2.7
		c-0.8-0.9-2.1-1.5-3.8-1.5c-1.5,0-2.8,0.4-3.8,1.5c-0.5,0.6-0.9,1.3-0.9,2.3c0,1.9,1.6,2.8,3.2,3c1.2,0.1,2.4,0.4,3.5,0.5
		c3.5,0.5,5.9,2.7,5.9,6C198.6,71.3,197.8,72.6,196.8,73.7z"/>
	<path class="st0" d="M215.8,73.5c-1.3,1.3-3.4,2.3-5.7,2.3c-2.1,0-4.2-0.8-5.8-2.3c-2.3-2.2-2.7-5.4-2.7-8.8c0-3.4,0.4-6.5,2.7-8.8
		c1.5-1.5,3.6-2.3,5.8-2.3c2.3,0,4.4,0.9,5.7,2.2c1.2,1.3,2,2.9,2.1,4.9h-2.8c0-1.2-0.5-2.2-1.2-3c-0.8-0.9-2.2-1.6-3.8-1.6
		c-1.4,0-2.8,0.6-3.9,1.6c-1.7,1.8-1.8,4.7-1.8,6.9c0,2.2,0.1,5.1,1.8,6.9c1,1,2.4,1.6,3.9,1.6c1.6,0,3-0.7,3.9-1.6
		c0.7-0.8,1.1-1.9,1.2-3.1h2.8C217.8,70.6,217,72.3,215.8,73.5z"/>
	<path class="st0" d="M235,75.4v-9.8h-10.2v9.8h-2.7V54.1h2.7V63H235v-8.9h2.7v21.3H235z"/>
	<path class="st0" d="M256.4,73.5c-1.5,1.5-3.6,2.3-5.7,2.3c-2.1,0-4.2-0.8-5.7-2.3c-2.3-2.2-2.7-5.4-2.7-8.8c0-3.4,0.4-6.5,2.7-8.8
		c1.5-1.5,3.6-2.3,5.7-2.3c2.1,0,4.2,0.8,5.7,2.3c2.3,2.2,2.7,5.4,2.7,8.8C259.1,68.2,258.7,71.3,256.4,73.5z M254.5,57.9
		c-1-1.1-2.4-1.6-3.9-1.6c-1.4,0-2.9,0.5-3.9,1.6c-1.7,1.8-1.8,4.7-1.8,6.9c0,2.2,0.1,5.1,1.8,6.9c1,1,2.4,1.6,3.9,1.6
		c1.4,0,2.8-0.5,3.9-1.6c1.7-1.8,1.8-4.7,1.8-6.9C256.4,62.6,256.3,59.7,254.5,57.9z"/>
	<path class="st0" d="M276.5,73.5c-1.5,1.5-3.6,2.3-5.7,2.3c-2.1,0-4.2-0.8-5.7-2.3c-2.3-2.2-2.7-5.4-2.7-8.8c0-3.4,0.4-6.5,2.7-8.8
		c1.5-1.5,3.6-2.3,5.7-2.3c2.1,0,4.2,0.8,5.7,2.3c2.3,2.2,2.7,5.4,2.7,8.8C279.2,68.2,278.8,71.3,276.5,73.5z M274.6,57.9
		c-1-1.1-2.4-1.6-3.9-1.6c-1.4,0-2.8,0.5-3.9,1.6c-1.7,1.8-1.8,4.7-1.8,6.9c0,2.2,0.1,5.1,1.8,6.9c1,1,2.4,1.6,3.9,1.6
		c1.4,0,2.8-0.5,3.9-1.6c1.7-1.8,1.8-4.7,1.8-6.9C276.5,62.6,276.4,59.7,274.6,57.9z"/>
	<path class="st0" d="M283.8,75.4V54.1h2.7v18.8h10.2v2.5H283.8z"/>
	<path class="st0" d="M14.6,102.6c-1.5,1.5-3.6,2.3-5.7,2.3c-2.1,0-4.2-0.8-5.7-2.3c-2.3-2.2-2.7-5.4-2.7-8.8c0-3.4,0.4-6.5,2.7-8.8
		c1.5-1.5,3.6-2.3,5.7-2.3c2.1,0,4.2,0.8,5.7,2.3c2.3,2.2,2.7,5.4,2.7,8.8C17.3,97.2,16.9,100.4,14.6,102.6z M12.7,87
		c-1-1-2.4-1.6-3.9-1.6C7.4,85.4,6,85.9,5,87c-1.7,1.8-1.8,4.7-1.8,6.9c0,2.2,0.1,5.1,1.8,6.9c1,1,2.4,1.6,3.9,1.6
		c1.4,0,2.9-0.5,3.9-1.6c1.7-1.8,1.8-4.7,1.8-6.9C14.5,91.6,14.4,88.8,12.7,87z"/>
	<path class="st0" d="M24.5,85.7v6.9h9.9v2.5h-9.9v9.4h-2.7V83.2h13.8v2.5H24.5z"/>
	<path class="st0" d="M45.9,104.5V83.2H61v3.5H49.7v4.9h9.9v3.5h-9.9v5.8H61v3.5H45.9z"/>
	<path class="st0" d="M77.7,104.5l-9.2-14.6v14.6h-3.8V83.2h4.1l9.1,14.4V83.2h3.8v21.3H77.7z"/>
	<path class="st0" d="M100.4,104.5l-0.5-2.3c-0.6,1.2-2.7,2.7-5.3,2.7c-2.5,0-4.6-0.6-6.3-2.4c-2.2-2.3-2.8-5.2-2.8-8.6
		c0-3.5,0.5-6.2,2.8-8.5c1.6-1.6,4-2.5,6.3-2.5c2.6,0,4.9,1,6.3,2.4c1,1.1,1.8,2.4,2,4.3h-4c-0.1-0.8-0.5-1.4-0.9-1.9
		c-0.8-0.9-1.9-1.3-3.4-1.3c-1.2,0-2.6,0.5-3.5,1.4c-1.5,1.5-1.7,4.2-1.7,6.1c0,1.9,0.2,4.7,1.7,6.2c0.8,0.9,2.2,1.3,3.4,1.3
		c1.4,0,2.5-0.5,3.2-1.2c1.1-1.2,1.4-2.5,1.4-4.1H94v-3.2h8.8v11.6H100.4z"/>
	<path class="st0" d="M107.2,104.5V83.2h3.9v21.3H107.2z"/>
	<path class="st0" d="M129.2,104.5l-9.2-14.6v14.6h-3.8V83.2h4.1l9.1,14.4V83.2h3.8v21.3H129.2z"/>
	<path class="st0" d="M138.1,104.5V83.2h15.1v3.5H142v4.9h9.9v3.5H142v5.8h11.3v3.5H138.1z"/>
	<path class="st0" d="M157,104.5V83.2h15.1v3.5h-11.3v4.9h9.9v3.5h-9.9v5.8h11.3v3.5H157z"/>
	<path class="st0" d="M187.9,104.5l-3.5-8h-4.7v8h-3.9V83.2h9c5.1,0,7.4,3.2,7.4,6.6c0,2.8-1.6,5.1-3.9,6l3.9,8.7H187.9z
		 M184.8,86.6h-5.1V93h5.2c2.2,0,3.4-1.1,3.4-3.1C188.3,88.1,187,86.6,184.8,86.6z"/>
	<path class="st0" d="M195.6,104.5V83.2h3.9v21.3H195.6z"/>
	<path class="st0" d="M217.5,104.5l-9.2-14.6v14.6h-3.8V83.2h4.1l9.1,14.4V83.2h3.8v21.3H217.5z"/>
	<path class="st0" d="M240.1,104.5l-0.4-2.3c-0.6,1.2-2.7,2.7-5.3,2.7c-2.5,0-4.7-0.6-6.3-2.4c-2.2-2.3-2.8-5.2-2.8-8.6
		c0-3.5,0.4-6.2,2.8-8.5c1.6-1.6,4-2.5,6.3-2.5c2.6,0,4.9,1,6.3,2.4c1.1,1.1,1.8,2.4,2,4.3h-4c-0.1-0.8-0.5-1.4-0.9-1.9
		c-0.8-0.9-1.9-1.3-3.4-1.3c-1.2,0-2.6,0.5-3.5,1.4c-1.5,1.5-1.7,4.2-1.7,6.1c0,1.9,0.2,4.7,1.7,6.2c0.8,0.9,2.2,1.3,3.4,1.3
		c1.4,0,2.5-0.5,3.2-1.2c1.1-1.2,1.4-2.5,1.4-4.1h-5.1v-3.2h8.8v11.6H240.1z"/>
</g>
</svg>
