<?xml version="1.0" encoding="utf-8"?>
<!-- Generator: Adobe Illustrator 27.0.0, SVG Export Plug-In . SVG Version: 6.00 Build 0)  -->
<svg version="1.1" id="Layer_1" xmlns="http://www.w3.org/2000/svg" xmlns:xlink="http://www.w3.org/1999/xlink" x="0px" y="0px"
	 viewBox="0 0 1646 2022" style="enable-background:new 0 0 1646 2022;" xml:space="preserve">
<style type="text/css">
	.st0{fill-rule:evenodd;clip-rule:evenodd;}
	.st1{fill-rule:evenodd;clip-rule:evenodd;fill:#FDFDFD;}
	.st2{fill-rule:evenodd;clip-rule:evenodd;fill:#080807;}
</style>
<g id="Capa_x0020_1">
	<path class="st0" d="M833.4,326.2c0,6.4,157.4,265.4,175.1,296c29.1,50.1,60.3,96.7,87.9,147.6c3.5,6.5,8.9,12.2,11.3,17.2
		c6.6,13.6-4.2,16.4,10,21c13.6,4.4,32.2,12.5,44.4,15.2c23.7,5.2,74.3,27.3,90.4,28.6V80.3H833.4L833.4,326.2L833.4,326.2z"/>
	<path class="st0" d="M80.4,1939.1H497v-243.4c0-11-121.3-211.9-136.5-233.7c-13.9-20-135.1-224.7-138-233.6l-116.3-14.2
		c0-20.3,12.9-38.6,12.9-54.4c0-4.8-24.3-37.8-28.1-43.5l131.6-86l0.5-347.2l144.5,246.7l64.5-21.1c-0.7-8.1-2.6-9.2-2.6-18.1
		l0.4-6.3L783.3,786L370.2,80.3H80.4L80.4,1939.1L80.4,1939.1z"/>
	<path class="st1" d="M833.4,80.3h419.2v771.5c-16.2-1.3-66.7-23.4-90.4-28.6c-12.2-2.7-30.8-10.8-44.4-15.2
		c-14.2-4.6-3.4-7.4-10-21c-2.4-5-7.8-10.7-11.3-17.2c-27.6-50.9-58.9-97.5-87.9-147.6c-17.7-30.5-175.1-289.6-175.1-296L833.4,80.3
		L833.4,80.3z M799.7,336.6c0,15.1,276.9,455.9,276.9,468.6v18.1c18.3,1.5,92.4,24.6,110.5,31.8c17.4,6.9,34.6,10.9,50.8,19.1
		c6.3,3.2,47,23.8,48.3,24.2V46.6H799.7L799.7,336.6L799.7,336.6z"/>
	<path class="st1" d="M771.2,341.7V18.1h543.4v908.7c22.8,5.3,52.6,41.4,64.7,59.5c32.5,0,104.5,27.6,133.5,37.3
		c26.9,9,91.4,49.2,104.6,68.8c-7.7-2.1-74.3-42.1-91.4-50.9c-26-13.3-75.1-29.3-113-29.3h-18.1c11.2,48,70.6,32.5,104.2,58.8
		c19.5,15.3,84.3,52.4,89.8,73.2c-34.4-23-124.5-85.4-176-85.4c-3.6,0-5.2,3.5-5.2,7.8v12.9c0,7.5,30.4,18.1,39.5,25.2
		c15.6,12,22.3,17.3,36.1,31.2c13.9,13.9,49.1,61,53.7,80.9c-2.8-2.1-40.6-49.6-51.1-60.2c-11.5-11.6-50.6-40.8-70.5-40.8
		c-18,0-11.9,39.9-23.9,53.8c-24.3,28.2-9.9,28-21.8,58.4c-11.7,30-52.6,71.4-52.6,107.9v15.5c0,28.9,38.8,76.7,38.8,116.5v20.7
		c0,11.3-5.2,9.4-5.2,20.7c0,15.8,33.6,38.1,33.6,80.3c0,33.6-24.4,70-30.9,98.5c-7.8,34.4-10.5,77-11,119.7l-28-16.3v212.3h-383
		c-12.7,0-58.4-104.3-75.1-116.5l-29.8,22.4l-3.3-1.3l-16.1-93.1l2.6-0.5l-0.7-37.3l-247.7,177.1v49.2h-546V18.1L405,18.9
		l454.2,773.3c17.6-1.5,40-12.9,56.9-12.9h5.2c32.9,0,86,27.7,121.6,28.5c-4-17.3-117.5-200.9-136.1-231.5
		C891.1,550.3,771.2,353.2,771.2,341.7L771.2,341.7z M753.1,349.5c0,10,231,384.9,256.2,432.4c-28.9-2.4-62.2-20.7-93.2-20.7
		c-10.4,0-36,7.9-46.6,10.4c-18.2-27.2-42.1-67.6-57.8-97.5c-17.5-33.4-40.4-64.2-57.8-97.5c-32.5-61.9-77-134.3-114.2-193.8
		c-39.5-63.2-76.6-129.9-114.3-193.7C511.7,165.6,422.3,0,406.4,0H18.3C6.2,0,0.1,6,0.1,18.1v1996.1c11.9,3.2,6.5,7.8,15.5,7.8H26
		h538.2h-5.2c26.9,0,20.7-30.2,20.7-57L790.6,1813c1.4,33.5,10.7,115.8,35,115.8h2.6c6.9,0,17.9-11.9,23.3-15.5
		c18.9,13.9,54.1,108.7,75,108.7h388.1c27.7,0,18.1-62.8,18.1-90.6c0-36.2,0-72.5,0-108.7c41.3,19.9,25.8-82.2,34.2-116
		c6.2-24.9,38.6-97.4,35.7-119.6l-3.2-25.8l-4.5-0.1c0-22.3-16.6-37.9-25.9-51.8l6-33.5c4.6-36.4-39.7-100-39.7-124.4v-12.9
		c0-32,33.6-70.5,47.1-95.3c9.6-17.7,7.1-44,16.9-55.6c11.1-13,18.8-28.1,18.8-51.1h7.8c15.9,0,55.7,41.5,66.6,52.4
		c11.9,12,43.8,66.6,52.4,66.6h2.6c12.1,0,18.1-6,18.1-18.1v-2.6c0-9.8-36-68.2-43-78.7c-9.3-13.9-57.5-62.3-58-63.7
		c33.4,7.8,116.8,72.5,129.4,72.5h2.6c6.2,0,15.5-9.3,15.5-15.5c0-32.9-97.4-81.5-108.7-98.4c27.2,6.3,114.7,67.3,124.2,67.3
		c8.8,0,18.1-9.3,18.1-18.1c0-31.2-116-87.9-147.5-101c-24.3-10.1-69.5-21.4-96.3-27.9c-28.2-6.8-43.1-41-69.3-54.9
		c0-156.2,0-312.4,0-468.6c0-78.5,0-157.1,0-235.6c0-38.8,0-77.7,0-116.5c0-31.2,11.3-95.8-20.7-95.8H768.7
		c-8.4,0-15.5,11.3-15.5,20.7L753.1,349.5L753.1,349.5z"/>
	<polygon class="st1" points="287.4,1025.2 334.4,996.5 287.4,921.7 	"/>
	<path class="st1" d="M1270.7,986.4v75.1c0,22.8,30.1,38.2,46,47.1c10.4,5.8,21.6,8.9,32.1,14.5c15.1,8.1,16.8,13.7,28,21.2
		c3.1-6.6,7.8-18.9,7.8-28.5v-2.6c0-11.9-7.4-5.2-15.5-5.2h-2.6c-8,0-10.4-7.6-10.4-15.5v-7.8c0-5.6,10.4-15.5,12.9-15.5
		c10.9,0,2,6.4,18.1,7.8v-12.9c0-5.8-2-5.7-5.1-9.9l-28.6,4.7c-2.9-11-5.2-4.5-5.2-12.9v-2.6c0-7.2,10.9-18.1,18.1-18.1h10.4
		c-1.9-23.3-31.1-11.8-31.1-36.2v-10.4c-27.8,0-30.7-20.7-56.9-20.7h-7.8C1278.3,969.4,1270.7,975.5,1270.7,986.4L1270.7,986.4z"/>
	<path class="st1" d="M949.8,1012.3c26.4-2.2,136.7-49.2,150.1-49.2c5.9,0,3,0.9,10.4,2.6c0.7,8.1,2.6,9.2,2.6,18.1v5.2
		c0,11.8-54.7,15.7-69.4,18.6c-11.9,2.4-53.1,18.6-66,24.5c-66.4,30.6-84.6,4.4-84.6,96.6c33.2-17.6,65.9-38.4,98.3-54.4
		c15-7.4,35.9-17.8,51.2-26.4c11.7-6.6,14.8-4.4,24.5-14.3c4.5-4.6,15.6-16.2,22.6-16.2h2.6c7.3,0,12.9,8.9,12.9,15.5
		c0,20.3-31.6,25.9-47.7,35.1c-17.3,9.9-36.9,18.9-54.9,27.9c-14,6.9-104.4,55.9-104.4,63.9c0,14.7,21.7,42.9,31.1,49.2
		c18.9-12.7,153.7-137.2,155.3-137.2c6.3,0,18.1,11.9,18.1,18.1v5.2c0,12.4-10.8,4.6-22.4,11.3c-6.7,3.9-15.7,10.4-21.7,14.6
		c-9.7,6.8-29.5,23.1-38.1,31.7c-18.7,18.8-54.5,51.8-67.9,71.9c7,10.5,21.8,12.9,38.8,12.9c49.2,0,96.9-52.2,121-80.9
		c25.1-29.9,20.6-26.1,59.4-41.5c33.9-13.5,42.1-17.8,71-32.8l7.4-54.4v-25.9c0-19.8-7.4-23.3-7.8-38.8c-9-2.1-8.7-5.2-18.1-5.2
		h-7.8c-13,0-28.9,33.7-44,33.7h-7.8c-8,0-23.3-15.3-23.3-23.3v-2.6c0-25.1,93.7-40.7,124.2-41.4v-5.2c-28.3-6.6-37-23.3-82.8-23.3
		H1162C1096.3,895.8,976.7,975.6,949.8,1012.3L949.8,1012.3z"/>
	<path class="st1" d="M1149,1157.3v5.2c0,33.1,38.9,85.1,59.8,90.6l-2.9-23.3l0-2.6l7.8-80.3c-5.8-8.7-11.3-12.9-25.9-12.9h-12.9
		C1161.8,1134,1149,1143.3,1149,1157.3L1149,1157.3z"/>
	<path class="st1" d="M1309.5,1149.5v18.1c0,23.4,12.9,36.7,12.9,57v7.8c0,7-1.2,7.1-2.6,12.9c20.1-13.5,38.8-41.2,38.8-75.1v-7.8
		c0-16.2-15.1-28.5-31.1-28.5C1320.3,1134,1309.5,1142.2,1309.5,1149.5L1309.5,1149.5z"/>
	<path class="st1" d="M1288.8,1499c9.9,2.6,13.4,7.8,28.5,7.8c7,0,7.1-1.2,12.4-2.6l3.1-41.4c1.2-13.3-5-44-15.5-44h-2.6
		c-13.6,0-9,23.9-13.9,37.9C1296,1470.4,1292,1485.2,1288.8,1499L1288.8,1499z"/>
	<path class="st1" d="M1149,1462.8v15.5c0,10.4,6.7,29.3,10.4,35.8l33.6,3h2.6c9.6,0,11.7-2.5,15.5-7.8
		c-20.6-30.8-24.1-47.1-33.6-88C1159.4,1421.8,1149,1444.7,1149,1462.8L1149,1462.8z"/>
	<path class="st1" d="M502.1,926.9l2.3,24.7l-73.1,17l5.6,16.9l-273.8,151l2.8-0.3l2.4,36.6c37.3,0,90.4,10.1,124.1,10.4
		c39.6,0.3,22.5,3.3,56.5-5.8c18.5-5,31.7-12.4,57.5-12.4c-22.8,34.1-77.6,59.4-77.6,113.9c0,6.2,142.8,244.3,158.9,270.8
		c16.3,26.7,74.2,110.3,74,140.8c-0.5,72.4,0,145,0,217.5c36.3-24.3,274.4-198.9,295-199.4c0,19.4-12.9,59.2-12.9,72.5v31.1
		c0,12.3,2.9,18.7,5.2,28.5c40.7-27.2,183.9-155.3,232.9-155.3c7,0,7.1,1.2,12.9,2.6c-0.4,19.3-12.9,38-12.9,64.7v23.3
		c27.1-6.3,64-72.5,126.8-72.5h67.3c13.7,0,33.7,29.9,41.4,38.8c0-39.1,0.6-50.7,12.9-77.7c7.8-17,20.7-48.7,20.7-72.5
		c0-26.9-14.4-57-41.4-57l-28.6-1l-64.1,7.5l-58.8,22.5l-1.2-3.1c0-32.4,13.4-19.7-22.3-29.5c-23-6.3-26.2-5.3-45.4-14.1
		c-28-12.8-51-24.5-71.4-45.1c-32.1-32.4-73.1-98.3-73.1-159.9c0-14,7.8-27,7.8-44v-5.2c0-8.8-15-12.9-23.3-12.9
		c-6.2,0-94.3,104.1-105.4,117.2c-15.1,17.8-91.5,121.2-99,126.2c3.5-14.9,71.7-115.3,84.9-135.2c14.5-21.9,30.4-44,46.4-64.9
		c15.2-19.9,37.5-43,49.2-60.9l-38.1-50.4l2.6-2c-29.4,0.7-105.7,76-129.4,93.2c-16.1,11.7-40.6,39.3-56.3,55
		c-13.3,13.3-43.3,48.5-55,56.3c12.4-46.5,185.3-200.3,229.1-230.5l6.3-75c-16.4,1.4-75.1,29.9-88.5,38.3
		c-28.6,17.9-48.8,31.4-75.6,51.2c-23.1,17-48.4,38.3-69.5,57.3c-17.9,16.2-49,48.5-66.6,60.2c6.2-23.4,79-91.6,98.9-110.7
		c26.5-25.5,91.8-68.6,126.2-86c22.8-11.5,46-25.6,69.8-36.3c26.5-11.9,34.3-30.4,55-51.1c20-20,34-31.8,57.3-48.8
		c12.4-9,58.5-35.5,63.7-42.5c-39.4,0-64.4-4.7-90.5,10.4c-14.1,8.2-47.9,38.8-64.7,38.8h-5.2c-14.8,0-20.5-13.7-31.4-21.8
		L704,976.1c-2.9-11-5.2-4.5-5.2-12.9v-7.8c14.6-3.9,67.1-29.5,83.7-37.9c25.1-12.7,57.5-29.7,82.3-39.4
		c47.6-18.6,170.5-8.1,235.1-8.1c-1.9-2.6-162-51.8-173.4-51.8c-19.8,0-188,44.8-213.1,53.4c-30.3,10.4-72.2,20-104.1,27.9
		C572,908.7,538.3,918.4,502.1,926.9L502.1,926.9z"/>
	<path class="st1" d="M918.7,1864.1l103.5-82.8c0,46.9,7.1,81.5,33.6,101c48.9-32.8,93.9-129.4,178.5-129.4c8.9,0,10,1.9,18.1,2.6
		v183.8H967.9C959.4,1939.2,924.2,1874.4,918.7,1864.1L918.7,1864.1z M1058.5,1843.4l-12.9-106.1c-13.4,7.1-163,128.5-163,129.4
		c0,6.8,59,106.1,64.7,106.1h339v-214.9c0-11.9-34.1-28.5-49.2-28.5h-10.4C1144.9,1729.4,1075.2,1838.9,1058.5,1843.4L1058.5,1843.4
		z"/>
	<path class="st0" d="M918.7,1864.1c5.5,10.3,40.7,75.1,49.2,75.1h284.6v-183.8c-8.1-0.7-9.2-2.6-18.1-2.6
		c-84.7,0-129.6,96.7-178.5,129.4c-26.5-19.5-33.6-54.1-33.6-101L918.7,1864.1L918.7,1864.1z"/>
	<path class="st1" d="M80.4,80.3h289.8L783.3,786l-353.3,98.3l-0.4,6.3c0,8.9,1.9,10,2.6,18.1l-64.5,21.1L223.2,683.2l-0.5,347.2
		l-131.6,86c3.8,5.7,28.1,38.7,28.1,43.5c0,15.8-12.9,34-12.9,54.4l116.3,14.2c2.9,8.9,124.1,213.6,138,233.6
		c15.2,21.8,136.5,222.7,136.5,233.7v243.4H80.4L80.4,80.3L80.4,80.3z M46.7,1972.8h483.9v-287.4c0-12.3-120.8-210.6-136.6-236.1
		c-18.5-29.9-133.5-217.3-137.8-234.5l-116.4-18.7c0.3-12.8,10-32.4,7-43c-3-10.4-18.6-19.3-19.5-33.9l129-73.2l1.4-236.4
		l104.7,174.2l33.7-20.7c-5.9-25.3-10.1-16.5,18.6-25.4c14.1-4.4,30.2-6.3,41.4-13.5l-2.9-25.3L830.8,800
		c-67.9-128.4-151.5-250.7-221.7-378.9c-35.2-64.4-75.7-124-111.3-189C486.6,211.6,392.4,46.6,383.1,46.6H46.7L46.7,1972.8
		L46.7,1972.8z"/>
	<path class="st2" d="M1058.5,1843.4c16.7-4.5,86.4-113.9,168.2-113.9h10.4c15.1,0,49.2,16.6,49.2,28.5v214.9h-339
		c-5.7,0-64.7-99.3-64.7-106.1c0-1,149.6-122.4,163-129.4L1058.5,1843.4L1058.5,1843.4z M1149,1462.8c0-18.1,10.4-41,28.5-41.4
		c9.5,40.9,13,57.2,33.6,88c-3.8,5.2-5.9,7.8-15.5,7.8h-2.6l-33.6-3c-3.7-6.5-10.4-25.4-10.4-35.8V1462.8L1149,1462.8z M1288.8,1499
		c3.2-13.9,7.2-28.6,12-42.4c4.8-14,0.3-37.9,13.9-37.9h2.6c10.5,0,16.7,30.7,15.5,44l-3.1,41.4c-5.3,1.4-5.4,2.6-12.4,2.6
		C1302.2,1506.8,1298.6,1501.7,1288.8,1499L1288.8,1499z M1309.5,1149.5c0-7.3,10.8-15.5,18.1-15.5c15.9,0,31.1,12.3,31.1,28.5v7.8
		c0,33.8-18.7,61.6-38.8,75.1c1.4-5.8,2.6-6,2.6-12.9v-7.8c0-20.3-12.9-33.5-12.9-57V1149.5L1309.5,1149.5z M1149,1157.3
		c0-14,12.8-23.3,25.9-23.3h12.9c14.5,0,20.1,4.2,25.9,12.9l-7.8,80.3l0,2.6l2.9,23.3c-20.9-5.5-59.8-57.5-59.8-90.6V1157.3
		L1149,1157.3z M1270.7,986.4c0-10.9,7.7-17,10.4-28.5h7.8c26.3,0,29.2,20.7,56.9,20.7V989c0,24.5,29.1,13,31.1,36.2h-10.4
		c-7.2,0-18.1,10.9-18.1,18.1v2.6c0,8.4,2.2,2,5.2,12.9l28.6-4.7c3,4.2,5.1,4.1,5.1,9.9v12.9c-16.2-1.3-7.2-7.8-18.1-7.8
		c-2.5,0-12.9,9.9-12.9,15.5v7.8c0,7.9,2.4,15.5,10.4,15.5h2.6c8.1,0,15.5-6.7,15.5,5.2v2.6c0,9.6-4.6,21.9-7.8,28.5
		c-11.2-7.5-12.9-13.1-28-21.2c-10.5-5.6-21.7-8.7-32.1-14.5c-15.9-8.9-46-24.3-46-47.1L1270.7,986.4L1270.7,986.4z M287.4,921.7
		l47.1,74.8l-47.1,28.8V921.7L287.4,921.7z M949.8,1012.3c26.9-36.7,146.5-116.5,212.2-116.5h20.7c45.8,0,54.5,16.7,82.8,23.3v5.2
		c-30.5,0.7-124.2,16.3-124.2,41.4v2.6c0,8,15.3,23.3,23.3,23.3h7.8c15.1,0,30.9-33.7,44-33.7h7.8c9.4,0,9.1,3.1,18.1,5.2
		c0.3,15.6,7.8,19.1,7.8,38.8v25.9l-7.4,54.4c-28.9,15.1-37.1,19.3-71,32.8c-38.8,15.5-34.3,11.6-59.4,41.5
		c-24.1,28.7-71.7,80.9-121,80.9c-17,0-31.8-2.4-38.8-12.9c13.4-20.1,49.2-53.1,67.9-71.9c8.6-8.7,28.5-24.9,38.1-31.7
		c6-4.2,14.9-10.7,21.7-14.6c11.5-6.7,22.4,1.2,22.4-11.3v-5.2c0-6.3-11.9-18.1-18.1-18.1c-1.6,0-136.4,124.6-155.3,137.2
		c-9.3-6.2-31.1-34.5-31.1-49.2c0-8,90.4-56.9,104.4-63.9c18.1-9,37.6-18,54.9-27.9c16.1-9.2,47.7-14.8,47.7-35.1
		c0-6.6-5.6-15.5-12.9-15.5h-2.6c-7,0-18.1,11.6-22.6,16.2c-9.7,9.9-12.8,7.7-24.5,14.3c-15.3,8.6-36.2,19.1-51.2,26.4
		c-32.4,15.9-65.2,36.8-98.3,54.4c0-92.2,18.2-66.1,84.6-96.6c13-6,54.2-22.2,66-24.5c14.6-2.9,69.4-6.9,69.4-18.6v-5.2
		c0-8.9-1.9-10-2.6-18.1c-7.3-1.7-4.4-2.6-10.4-2.6C1086.5,963.1,976.2,1010.1,949.8,1012.3L949.8,1012.3z M502.1,926.9
		c36.1-8.4,69.9-18.2,107.2-27.4c31.8-7.9,73.8-17.5,104.1-27.9c25.2-8.6,193.3-53.4,213.1-53.4c11.3,0,171.5,49.2,173.4,51.8
		c-64.6,0-187.5-10.4-235.1,8.1c-24.8,9.7-57.2,26.7-82.3,39.4c-16.6,8.4-69.1,34.1-83.7,37.9v7.8c0,8.4,2.2,2,5.2,12.9l139.4-37.4
		c10.8,8.2,16.5,21.8,31.4,21.8h5.2c16.8,0,50.6-30.6,64.7-38.8c26.1-15.1,51.2-10.4,90.5-10.4c-5.1,7-51.3,33.4-63.7,42.5
		c-23.4,17-37.3,28.8-57.3,48.8c-20.7,20.7-28.5,39.3-55,51.1c-23.8,10.7-47,24.8-69.8,36.3c-34.5,17.4-99.7,60.5-126.2,86
		c-19.9,19.1-92.7,87.4-98.9,110.7c17.6-11.8,48.7-44.1,66.6-60.2c21.1-19.1,46.4-40.3,69.5-57.3c26.8-19.8,47-33.3,75.6-51.2
		c13.4-8.4,72.1-36.9,88.5-38.3l-6.3,75c-43.8,30.2-216.7,184-229.1,230.5c11.7-7.8,41.7-43,55-56.3c15.7-15.7,40.1-43.3,56.3-55
		c23.7-17.2,99.9-92.5,129.4-93.2l-2.6,2l38.1,50.4c-11.6,17.9-34,41-49.2,60.9c-16,20.9-31.9,43-46.4,64.9
		c-13.1,19.8-81.4,120.2-84.9,135.2c7.5-5,83.9-108.4,99-126.2c11.1-13.1,99.2-117.2,105.4-117.2c8.3,0,23.3,4.2,23.3,12.9v5.2
		c0,17-7.8,30-7.8,44c0,61.5,41,127.5,73.1,159.9c20.4,20.6,43.3,32.3,71.4,45.1c19.3,8.8,22.5,7.8,45.4,14.1
		c35.6,9.8,22.3-2.8,22.3,29.5l1.2,3.1l58.8-22.5l64.1-7.5l28.6,1c27,0,41.4,30.1,41.4,57c0,23.8-13,55.5-20.7,72.5
		c-12.3,26.9-12.9,38.6-12.9,77.7c-7.7-8.9-27.7-38.8-41.4-38.8h-67.3c-62.8,0-99.7,66.2-126.8,72.5v-23.3
		c0-26.7,12.5-45.4,12.9-64.7c-5.8-1.4-5.9-2.6-12.9-2.6c-49,0-192.2,128.1-232.9,155.3c-2.3-9.8-5.2-16.2-5.2-28.5v-31.1
		c0-13.3,12.9-53.1,12.9-72.5c-20.6,0.5-258.7,175.1-295,199.4c0-72.5-0.5-145.1,0-217.5c0.2-30.5-57.8-114.1-74-140.8
		c-16.1-26.5-158.9-264.6-158.9-270.8c0-54.5,54.8-79.8,77.6-113.9c-25.7,0-38.9,7.5-57.5,12.4c-34,9.1-16.9,6.1-56.5,5.8
		c-33.8-0.3-86.8-10.4-124.1-10.4l-2.4-36.6l-2.8,0.3l273.8-151l-5.6-16.9l73.1-17L502.1,926.9L502.1,926.9z M46.7,46.6h336.4
		c9.3,0,103.5,165,114.7,185.5c35.5,65,76,124.6,111.3,189C679.2,549.3,762.9,671.6,830.8,800l-377.6,98.9l2.9,25.3
		c-11.2,7.2-27.2,9.1-41.4,13.5c-28.8,8.9-24.5,0.1-18.6,25.4l-33.7,20.7L257.7,809.5l-1.4,236.4l-129,73.2
		c0.9,14.6,16.5,23.6,19.5,33.9c3.1,10.7-6.7,30.2-7,43l116.4,18.7c4.2,17.2,119.2,204.6,137.8,234.5
		c15.8,25.5,136.6,223.8,136.6,236.1v287.4H46.7L46.7,46.6L46.7,46.6z M799.7,46.6h486.5v851.8c-1.3-0.3-42-21-48.3-24.2
		c-16.2-8.2-33.4-12.2-50.8-19.1c-18.1-7.2-92.2-30.3-110.5-31.8v-18.1c0-12.7-276.9-453.5-276.9-468.6L799.7,46.6L799.7,46.6z
		 M771.2,341.7c0,11.4,119.8,208.5,135.6,234.6c18.6,30.6,132.1,214.2,136.1,231.5c-35.6-0.8-88.7-28.5-121.6-28.5h-5.2
		c-16.9,0-39.3,11.5-56.9,12.9L405,18.9L15.7,18.1v1985.8h546v-49.2l247.7-177.1l0.7,37.3l-2.6,0.5l16.1,93.1l3.3,1.3l29.8-22.4
		c16.6,12.2,62.3,116.5,75.1,116.5h383v-212.3l28,16.3c0.5-42.7,3.2-85.2,11-119.7c6.5-28.6,30.9-65,30.9-98.5
		c0-42.1-33.6-64.4-33.6-80.3c0-11.3,5.2-9.4,5.2-20.7V1468c0-39.8-38.8-87.6-38.8-116.5v-15.5c0-36.5,40.9-77.9,52.6-107.9
		c11.9-30.4-2.5-30.2,21.8-58.4c12-13.9,5.9-53.8,23.9-53.8c20,0,59,29.2,70.5,40.8c10.5,10.6,48.3,58.1,51.1,60.2
		c-4.6-19.9-39.8-67-53.7-80.9c-13.9-13.8-20.5-19.1-36.1-31.2c-9.1-7-39.5-17.6-39.5-25.2v-12.9c0-4.2,1.5-7.8,5.2-7.8
		c51.5,0,141.6,62.4,176,85.4c-5.6-20.9-70.3-58-89.8-73.2c-33.6-26.3-93-10.8-104.2-58.8h18.1c37.8,0,87,16,113,29.3
		c17.1,8.8,83.7,48.9,91.4,50.9c-13.2-19.7-77.7-59.8-104.6-68.8c-29-9.8-101-37.3-133.5-37.3c-12.1-18.1-41.9-54.2-64.7-59.5V18.1
		H771.2L771.2,341.7L771.2,341.7z"/>
</g>
</svg>
