<?xml version="1.0" encoding="utf-8"?>
<!-- Generator: Adobe Illustrator 27.0.0, SVG Export Plug-In . SVG Version: 6.00 Build 0)  -->
<svg version="1.1" id="Layer_1" xmlns="http://www.w3.org/2000/svg" xmlns:xlink="http://www.w3.org/1999/xlink" x="0px" y="0px"
	 viewBox="0 0 800 800" style="enable-background:new 0 0 800 800;" xml:space="preserve">
<style type="text/css">
	.st0{fill:#4C2E0D;}
</style>
<g>
	<g id="_x3C_Mirror_Repeat_x3E__00000087397735110153284690000003622793415046502799_">
		<g>
			<g>
				<g>
					<g>
						<g>
							<g>
								<path class="st0" d="M56.7,372.5c2.9,3,100.1-0.5,114.1-0.5s193.3,13.7,208.9,13.7s21.3-20,21.3-20V233.2
									c0,0-26-8.8-37.4-8.8c-11.3,0-255.5,83.8-263.8,92.1C91.4,324.9,53.8,369.5,56.7,372.5z"/>
							</g>
						</g>
					</g>
				</g>
			</g>
		</g>
	</g>
	<g id="_x3C_Mirror_Repeat_x3E__00000119112359960236667730000000033181400886599836_">
		<g>
			<g>
				<g>
					<g>
						<g>
							<g>
								<path class="st0" d="M743.3,372.5c-2.9,3-100.1-0.5-114.1-0.5s-193.3,13.7-208.9,13.7s-21.3-20-21.3-20V233.2
									c0,0,26-8.8,37.4-8.8c11.3,0,255.5,83.8,263.8,92.1C708.6,324.9,746.2,369.5,743.3,372.5z"/>
							</g>
						</g>
					</g>
				</g>
			</g>
		</g>
	</g>
</g>
<g>
	<g id="_x3C_Mirror_Repeat_x3E__00000174579591448857768280000003239454848150485647_">
		<g>
			<g>
				<path class="st0" d="M306.2,526.6h187.6c3.3,0,5.7,3.2,4.8,6.4c-3.9,13.6-13.3,44.7-19.3,50.6c-7.7,7.7-67.7,25.6-79.3,25.6
					s-71.5-17.8-79.3-25.6c-6.1-6.1-15.4-37.1-19.3-50.6C300.5,529.8,302.9,526.6,306.2,526.6z"/>
			</g>
		</g>
	</g>
</g>
</svg>
