<?xml version="1.0" encoding="utf-8"?>
<!-- Generator: Adobe Illustrator 27.0.0, SVG Export Plug-In . SVG Version: 6.00 Build 0)  -->
<svg version="1.1" id="Layer_1" xmlns="http://www.w3.org/2000/svg" xmlns:xlink="http://www.w3.org/1999/xlink" x="0px" y="0px"
	 viewBox="0 0 800 800" style="enable-background:new 0 0 800 800;" xml:space="preserve">
<style type="text/css">
	.st0{fill:#F4C82E;}
	.st1{fill:#333333;}
</style>
<circle class="st0" cx="400" cy="400" r="400"/>
<g>
	<path class="st1" d="M165.3,384.2c0,0,10.4-14.6,4.4-27.7c-16.9-36.9-73.3-9.3-69.5,41c0,0,3.8,104.5,152.6,109.4
		c38.8,1.3,91.4-7.1,133.5-53.6c29.1-32.1,21.2-91.2-16.1-105c-40.2-14.8-91.9-4.1-130.5,54.6c-36.7,55.8-108.9,17-107.8-20.2
		C133.1,348.3,173,361.7,165.3,384.2z"/>
	<path class="st1" d="M634.6,384.2c0,0-10.4-14.6-4.4-27.7c16.9-36.9,73.3-9.3,69.5,41c0,0-3.8,104.5-152.6,109.4
		c-38.8,1.3-91.4-7.1-133.5-53.6c-29.1-32.1-21.2-91.2,16.1-105c40.2-14.8,91.9-4.1,130.5,54.6c36.7,55.8,108.9,17,107.8-20.2
		C666.9,348.3,626.9,361.7,634.6,384.2z"/>
</g>
<path class="st1" d="M326.5,566c12.2,0,134.8,0,147,0s-60.7,72-73.5,72S314.3,566,326.5,566z"/>
</svg>
