<?xml version="1.0" encoding="utf-8"?>
<!-- Generator: Adobe Illustrator 27.0.0, SVG Export Plug-In . SVG Version: 6.00 Build 0)  -->
<svg version="1.1" id="Layer_1" xmlns="http://www.w3.org/2000/svg" xmlns:xlink="http://www.w3.org/1999/xlink" x="0px" y="0px"
	 viewBox="0 0 800 800" style="enable-background:new 0 0 800 800;" xml:space="preserve">
<style type="text/css">
	.st0{fill:#FFFFFF;}
	.st1{fill:#333333;}
	.st2{display:none;fill:#333333;}
</style>
<circle class="st0" cx="400" cy="400" r="400"/>
<g>
	<path class="st1" d="M148,376.5c0,0,11.1-15.7,4.7-29.7c-18.1-39.6-78.7-10-74.7,44c0,0,4.1,112.2,163.9,117.5
		c41.7,1.4,98.1-7.6,143.3-57.5c31.3-34.4,22.7-97.9-17.3-112.8c-43.1-15.9-98.7-4.4-140.1,58.7c-39.2,59.8-116.8,18.2-115.6-21.8
		C113.5,337.9,156.3,352.3,148,376.5z"/>
	<path class="st1" d="M651.9,376.5c0,0-11.1-15.7-4.7-29.7c18.1-39.6,78.7-10,74.7,44c0,0-4.1,112.2-163.9,117.5
		c-41.7,1.4-98.1-7.6-143.3-57.5c-31.3-34.4-22.7-97.9,17.3-112.8c43.1-15.9,98.7-4.4,140.1,58.7c39.4,59.9,116.9,18.3,115.8-21.7
		C686.6,337.9,643.6,352.3,651.9,376.5z"/>
</g>
<path class="st2" d="M321.1,571.7c13.1,0,144.8,0,157.8,0c13.1,0-65.2,77.3-78.9,77.3C386.3,649,308,571.7,321.1,571.7z"/>
</svg>
