<?xml version="1.0" encoding="utf-8"?>
<svg version="1.1" xmlns="http://www.w3.org/2000/svg" xmlns:xlink="http://www.w3.org/1999/xlink" x="0px" y="0px"
	 viewBox="0 0 800 589.1" style="enable-background:new 0 0 800 589.1;" xml:space="preserve">
<style type="text/css">
	.st0{fill:#0099FF;}
</style>
<g>
	<path d="M789.4,527.6L614.9,353c24.4-34.7,37.6-75.9,37.6-119.2c0-55.5-21.6-107.6-60.8-146.9c-39.2-39.2-91.4-60.8-146.9-60.8
		c-4.1,0-8.1,0.1-12.2,0.4v60.2c4-0.3,8.1-0.5,12.2-0.5c39.5,0,76.5,15.4,104.4,43.3c27.9,27.9,43.3,65,43.3,104.4
		c0,39.5-15.4,76.5-43.3,104.4c-27.9,27.9-65,43.3-104.4,43.3c-39.5,0-76.5-15.4-104.4-43.3c-9.2-9.2-17-19.4-23.4-30.4
		c-7.8,4.5-16.9,7.1-26.6,7.1c-18.5,0-34.9-9.5-44.4-23.9c-0.2,0.3-0.4,0.6-0.6,0.9c9.6,33.2,27.5,63.6,52.6,88.7
		c39.2,39.2,91.4,60.8,146.9,60.8c43.3,0,84.5-13.2,119.2-37.6l174.6,174.6c7,7,16.2,10.6,25.5,10.6c9.2,0,18.4-3.5,25.5-10.6
		C803.5,564.5,803.5,541.7,789.4,527.6z"/>
	<path class="st0" d="M201.5,160c-13.1,0-23.7,10.6-23.7,23.7v78c0,13.1,10.6,23.7,23.7,23.7c13.1,0,23.7-10.6,23.7-23.7v-78
		C225.2,170.6,214.6,160,201.5,160z"/>
	<path class="st0" d="M23.7,160C10.6,160,0,170.6,0,183.7v78c0,13.1,10.6,23.7,23.7,23.7c13.1,0,23.7-10.6,23.7-23.7v-78
		C47.4,170.6,36.8,160,23.7,160z"/>
	<path class="st0" d="M112.6,62.2c-13.1,0-23.7,10.6-23.7,23.7v175.8c0,13.1,10.6,23.7,23.7,23.7c13.1,0,23.7-10.6,23.7-23.7V85.9
		C136.3,72.8,125.7,62.2,112.6,62.2z"/>
	<path class="st0" d="M379.3,285.4c13.1,0,23.7-10.6,23.7-23.7v-238C403,10.6,392.4,0,379.3,0c-13.1,0-23.7,10.6-23.7,23.7v238
		C355.6,274.8,366.2,285.4,379.3,285.4z"/>
	<path class="st0" d="M290.4,285.4c13.1,0,23.7-10.6,23.7-23.7V85.9c0-13.1-10.6-23.7-23.7-23.7c-13.1,0-23.7,10.6-23.7,23.7v175.8
		C266.7,274.8,277.3,285.4,290.4,285.4z"/>
</g>
</svg>
