<?xml version="1.0" encoding="utf-8"?>
<!-- Generator: Adobe Illustrator 27.0.0, SVG Export Plug-In . SVG Version: 6.00 Build 0)  -->
<svg version="1.1" id="Capa_1" xmlns="http://www.w3.org/2000/svg" xmlns:xlink="http://www.w3.org/1999/xlink" x="0px" y="0px"
	 viewBox="0 0 676.9 800" style="enable-background:new 0 0 676.9 800;" xml:space="preserve">
<g>
	<g>
		<path d="M49.5,259.1c-13.8,0-25.5,4.8-35.1,14.4S0,294.7,0,308.2v206.7c0,13.8,4.8,25.5,14.4,35.1c9.6,9.6,21.3,14.4,35.1,14.4
			c13.8,0,25.4-4.8,34.9-14.4c9.4-9.6,14.2-21.3,14.2-35.1V308.2c0-13.5-4.8-25-14.4-34.6S63,259.1,49.5,259.1z" fill="currentColor"/>
		<path d="M447.6,73.6l34.1-63c2.2-4.2,1.4-7.4-2.4-9.6c-4.2-1.9-7.4-1-9.6,2.9l-34.6,63.5c-30.5-13.5-62.7-20.2-96.6-20.2
			c-34,0-66.2,6.7-96.6,20.2L207.2,3.8C205,0,201.8-1,197.6,1c-3.9,2.3-4.6,5.4-2.4,9.6l34.1,63c-34.6,17.7-62.2,42.2-82.7,73.8
			c-20.5,31.6-30.8,66.1-30.8,103.6h444.7c0-37.5-10.3-72-30.8-103.6C509.3,115.8,481.9,91.2,447.6,73.6z M250.2,165.1
			c-3.7,3.7-8.1,5.5-13.2,5.5c-5.1,0-9.5-1.8-13-5.5c-3.5-3.7-5.3-8.1-5.3-13.2c0-5.1,1.8-9.5,5.3-13.2c3.5-3.7,7.9-5.5,13-5.5
			c5.1,0,9.5,1.8,13.2,5.5c3.7,3.7,5.5,8.1,5.5,13.2C255.8,157.1,253.9,161.5,250.2,165.1z M452.9,165.1c-3.5,3.7-7.9,5.5-13,5.5
			c-5.1,0-9.5-1.8-13.2-5.5c-3.7-3.7-5.5-8.1-5.5-13.2c0-5.1,1.8-9.5,5.5-13.2c3.7-3.7,8.1-5.5,13.2-5.5c5.1,0,9.4,1.8,13,5.5
			c3.5,3.7,5.3,8.1,5.3,13.2C458.2,157.1,456.4,161.5,452.9,165.1z" fill="currentColor"/>
		<path d="M117.8,588.5c0,14.8,5.1,27.2,15.4,37.5c10.3,10.3,22.8,15.4,37.5,15.4h35.6l0.5,109.1c0,13.8,4.8,25.5,14.4,35.1
			s21.2,14.4,34.6,14.4c13.8,0,25.5-4.8,35.1-14.4s14.4-21.3,14.4-35.1V641.3h66.3v109.1c0,13.8,4.8,25.5,14.4,35.1
			s21.3,14.4,35.1,14.4c13.8,0,25.5-4.8,35.1-14.4s14.4-21.3,14.4-35.1V641.3h36.1c14.4,0,26.8-5.1,37-15.4
			c10.3-10.3,15.4-22.7,15.4-37.5V268.3H117.8V588.5z" fill="currentColor"/>
		<path d="M627.4,259.1c-13.5,0-25,4.7-34.6,14.2c-9.6,9.5-14.4,21.1-14.4,34.9v206.7c0,13.8,4.8,25.5,14.4,35.1
			c9.6,9.6,21.2,14.4,34.6,14.4c13.8,0,25.5-4.8,35.1-14.4c9.6-9.6,14.4-21.3,14.4-35.1V308.2c0-13.8-4.8-25.4-14.4-34.9
			C652.9,263.9,641.2,259.1,627.4,259.1z" fill="currentColor"/>
	</g>
</g>
</svg>
