<?xml version="1.0" encoding="utf-8"?>
<!-- Generator: Adobe Illustrator 27.0.0, SVG Export Plug-In . SVG Version: 6.00 Build 0)  -->
<svg version="1.1" id="Layer_1" xmlns="http://www.w3.org/2000/svg" xmlns:xlink="http://www.w3.org/1999/xlink" x="0px" y="0px"
	 viewBox="0 0 1743.9 1961.1" style="enable-background:new 0 0 1743.9 1961.1;" xml:space="preserve">
<style type="text/css">
	.st0{fill:#9A4993;}
	.st1{fill:#6A1577;}
	.st2{fill:#813084;}
	.st3{fill:#FFFFFF;}
</style>
<g>
	<g transform="translate(-231 0)">
		<g>
			<g>
				<g>
					<g>
						<g>
							<g>
								<path class="st0" d="M1974.9,575.6c0-32.5-7-62.2-21.5-87.2c-14-25-34.9-45.3-62.8-61c-231.9-133.7-464.5-267.4-697-401
									c-62.8-36-123.2-34.9-185.4,1.7C915.8,82.2,452.5,347.8,315.3,428c-57,32-84.3,82.5-84.3,148.2v807.9c0,32,7,60.5,20.3,85.4
									c14,25,35.5,46.5,63.9,63.3c138.4,80.2,600.5,344.7,692.9,399.9c62.2,36.6,123.2,38.4,185.4,1.8
									c231.9-134.3,464.5-267.4,697-401c29.1-16.9,50-37.8,64-63.4c13.4-25,20.3-52.9,20.3-85.4V575.6z"/>
								<path class="st1" d="M1105.3,976.7l-854.5,492.3c14,25,35.5,46.5,63.9,63.3c138.4,80.2,600.5,344.7,692.9,399.9
									c62.2,36.6,123.2,38.4,185.4,1.7c231.9-134.3,464.5-267.3,697-401c29.1-16.9,50-37.8,63.9-63.3L1105.3,976.7z"/>
								<path class="st1" d="M851.8,1122.5c50,87.2,143.6,145.3,250.5,145.3c108.1,0,202.3-59.3,251.7-147l-248.8-144.1
									L851.8,1122.5z"/>
								<path class="st2" d="M1974.9,575.6c0-32.5-7-62.2-21.5-87.2l-848.1,488.2l849.3,492.3c13.4-25,20.3-52.9,20.3-85.4V575.6z"
									/>
								<path class="st3" d="M1354.1,1120.8c-49.4,87.8-143.6,147-251.7,147c-107.5,0-201.1-58.7-250.5-145.3
									c-24.4-42.4-38.4-90.7-38.4-143c0-159.3,129-288.3,288.3-288.3c106.4,0,199.4,58.1,249.4,144.1l251.7-145.3
									c-99.4-173.2-286.6-289.4-501.1-289.4c-320.3,0-579,259.2-579,578.9c0,104.6,27.9,203.4,76.7,288.3
									c100,173.8,287.7,290.6,502.8,290.6c215.7,0,403.4-117.4,503.4-292.4L1354.1,1120.8z M1672.6,842.4h-57.5v277.8h57.5V842.4z
									 M1799.9,842.4h-57.5v277.8h57.5V842.4z"/>
								<path class="st3" d="M1846.5,889.5h-277.9V947h277.9V889.5z M1846.5,1016.2h-277.9v57.5h277.9V1016.2z"/>
							</g>
						</g>
					</g>
				</g>
			</g>
		</g>
	</g>
</g>
</svg>
