<?xml version="1.0" encoding="utf-8"?>
<svg version="1.1" xmlns="http://www.w3.org/2000/svg" xmlns:xlink="http://www.w3.org/1999/xlink" x="0px" y="0px"
     viewBox="0 0 800 774.3" style="enable-background:new 0 0 800 774.3;" xml:space="preserve">
<g>
	<g>
		<path d="M674.2,93.7c-46.4-8-94.3-1.5-140.7,3.1c-46.3,4.6-94.6,10.2-140.4-0.7C339,83.3,304.9,47.9,279.7,0
			c-6.9,18.8-13.9,37.6-20.8,56.4C213.4,179.2,168,302.1,122.6,425L0,756.8l47.4,17.5l110.3-298.6c20.5,21.8,45.8,37.7,78.2,45.4
			c45.8,10.8,94.2,5.3,140.4,0.7c46.4-4.6,94.3-11.1,140.7-3.1c59.7,10.3,98.2,46,125.8,98.6C695.3,475.6,747.6,334,800,192.3
			C772.4,139.7,733.8,104,674.2,93.7z M680,345.9c-23.4-19.7-48.4-32.9-78.6-38.7c-10.1,27.3-20.2,54.5-30.2,81.8
			c30.2,5.8,55.3,19,78.6,38.7c-9.2,25-18.5,50-27.7,75c-23.4-19.7-48.4-32.9-78.6-38.7c9.2-25,18.5-50,27.7-75
			c-30.8-5-60.8-4.9-91.9-3c-9.2,25-18.5,50-27.7,75c-32.1,2.6-64.2,6.3-96.3,8.9c9.2-25,18.5-50,27.7-75c-31.1,1.9-61.1,1.9-91.9-3
			c-9.2,25-18.5,50-27.7,75c-30.2-5.8-55.3-19-78.6-38.7c9.2-25,18.5-50,27.7-75c23.4,19.7,48.4,32.9,78.6,38.7
			c10.1-27.3,20.2-54.6,30.2-81.8c-30.2-5.8-55.3-19-78.6-38.7c10.1-27.3,20.2-54.6,30.2-81.8c23.4,19.7,48.4,32.9,78.6,38.7
			c9.2-25,18.5-50,27.7-75c30.8,5,60.8,4.9,91.9,3c-9.2,25-18.5,50-27.7,75c32.1-2.6,64.1-6.3,96.3-8.9c9.2-25,18.5-50,27.7-75
			c31.1-1.9,61.1-1.9,91.9,3c-9.2,25-18.5,50-27.7,75c30.2,5.8,55.3,19,78.6,38.7C700.1,291.4,690.1,318.7,680,345.9z"/>
        <path d="M413.2,313.1c-10.1,27.3-20.2,54.6-30.2,81.8c32.1-2.6,64.2-6.3,96.3-8.9c10.1-27.3,20.2-54.5,30.2-81.8
			C477.3,306.8,445.3,310.5,413.2,313.1z"/>
        <path d="M413.2,313.1c10.1-27.3,20.2-54.6,30.2-81.8c-31.1,1.9-61.1,1.9-91.9-3c-10.1,27.3-20.2,54.6-30.2,81.8
			C352.1,315,382.1,315,413.2,313.1z"/>
        <path d="M539.7,222.4c-10.1,27.3-20.2,54.5-30.2,81.8c31.1-1.9,61.1-1.9,91.9,3c10.1-27.3,20.2-54.6,30.2-81.8
			C600.8,220.5,570.7,220.5,539.7,222.4z"/>
	</g>
</g>
</svg>
