<?xml version="1.0" encoding="utf-8"?>
<!-- Generator: Adobe Illustrator 27.0.0, SVG Export Plug-In . SVG Version: 6.00 Build 0)  -->
<svg version="1.1" id="Layer_1" xmlns="http://www.w3.org/2000/svg" xmlns:xlink="http://www.w3.org/1999/xlink" x="0px" y="0px"
	 viewBox="0 0 469.7 512" style="enable-background:new 0 0 469.7 512;" xml:space="preserve">
<style type="text/css">
	.st0{fill:#FFFFFF;}
</style>
<path d="M0,224.2C0,100.6,100.2,0,224,0h24c95.2,0,148.1,69.3,164.2,160.2c2.3,13,6.8,25.7,15.1,36l32.7,52.6
	c6.2,7.8,11.3,21.5,9.2,35.2c-2.1,13.7-9.9,36-34.1,36l-20.2,0v64c0,35.3-28.7,64-64,64H320v32c0,17.7-14.3,32-32,32H96
	c-17.7,0-32-14.3-32-32v-72.7c0-16.7-6.9-32.5-17.1-45.8C16.6,322.4,0,274.1,0,224.2z"/>
<path class="st0" d="M294.1,82.9c3.8,3.1,5.1,8.3,3.6,12.9l-9.4,29.4c2.7,3.5,5.2,7.2,7.5,11.2c2.3,3.9,4.2,8,5.9,12l30.2,6.6
	c4.8,1,8.6,4.7,9.4,9.5c1.1,6.6,1.7,13.2,1.8,19.8l0,4.9c-0.1,6.8-0.8,13.5-1.9,20.1c-0.8,4.8-4.6,8.5-9.4,9.6l-30.1,6.6
	c-3.4,8.2-7.9,16.1-13.4,23.2l9.3,29.4c1.5,4.7,0.2,9.8-3.6,12.9c-5.7,4.7-11.9,9-18.5,12.8c-6.6,3.8-13.4,7-20.3,9.6
	c-4.6,1.7-9.7,0.3-13-3.3l-20.8-22.8c-8.9,1.2-18,1.2-26.8,0l-20.7,22.8c-3.3,3.6-8.4,5-13,3.4c-6.3-2.3-12.4-5.1-18.3-8.4l-4.3-2.5
	c-5.7-3.4-11.1-7.2-16.3-11.5c-3.8-3.1-5.1-8.3-3.6-12.9l9.4-29.4c-2.7-3.5-5.2-7.3-7.5-11.2c-2.3-3.9-4.2-8-5.9-12L84.3,219
	c-4.8-1-8.6-4.7-9.4-9.5c-1.1-6.6-1.7-13.2-1.8-19.8l0-4.9c0.1-6.8,0.8-13.5,1.9-20.1c0.8-4.8,4.6-8.5,9.4-9.6l30.1-6.6
	c3.4-8.2,7.9-16.1,13.4-23.2l-9.3-29.4c-1.5-4.7-0.2-9.8,3.6-12.9c5.7-4.7,11.8-9,18.5-12.9s13.4-7,20.3-9.6c4.6-1.7,9.7-0.3,13,3.3
	l20.8,22.8c8.9-1.2,18-1.2,26.8,0l20.8-22.8c3.3-3.6,8.4-5,13-3.4c6.3,2.3,12.4,5.1,18.3,8.4l4.3,2.5
	C283.5,74.7,288.9,78.5,294.1,82.9L294.1,82.9z M229.2,223.5c20.2-11.6,27.1-37.5,15.4-57.6s-37.5-27.1-57.6-15.4
	s-27.1,37.5-15.4,57.6C183.2,228.2,209,235.2,229.2,223.5z"/>
</svg>
