<?xml version="1.0" encoding="utf-8"?>
<!-- Generator: Adobe Illustrator 27.0.0, SVG Export Plug-In . SVG Version: 6.00 Build 0)  -->
<svg version="1.1" id="Layer_1" xmlns="http://www.w3.org/2000/svg" xmlns:xlink="http://www.w3.org/1999/xlink" x="0px" y="0px"
	 viewBox="0 0 404.7 548.7" style="enable-background:new 0 0 404.7 548.7;" xml:space="preserve">
<style type="text/css">
	.st0{fill:#5382A1;}
	.st1{fill:#E76F00;}
</style>
<path class="st0" d="M130.3,424.4c0,0-21,12.2,14.9,16.3c43.5,5,65.7,4.2,113.6-4.8c0,0,12.6,7.9,30.2,14.7
	C181.7,496.6,46,447.9,130.3,424.4 M117.2,364.3c0,0-23.5,17.4,12.4,21.1c46.4,4.8,83.1,5.2,146.6-7c0,0,8.8,8.9,22.6,13.8
	C168.9,430.1,24.3,395.1,117.2,364.3"/>
<path class="st1" d="M227.9,262.4c26.5,30.5-7,57.9-7,57.9s67.2-34.7,36.3-78.1c-28.8-40.5-50.9-60.6,68.7-130.1
	C326,112.1,138.1,159,227.9,262.4"/>
<path class="st0" d="M369.9,468.8c0,0,15.5,12.8-17.1,22.7c-62,18.8-258.1,24.5-312.5,0.7c-19.6-8.5,17.1-20.3,28.7-22.8
	c12-2.6,18.9-2.1,18.9-2.1c-21.8-15.3-140.7,30.1-60.4,43.1C246.5,545.9,426.8,494.4,369.9,468.8 M140.4,302
	c0,0-99.7,23.7-35.3,32.3c27.2,3.6,81.4,2.8,131.9-1.4c41.3-3.5,82.7-10.9,82.7-10.9s-14.6,6.2-25.1,13.4
	c-101.3,26.6-296.9,14.2-240.6-13C101.7,299.4,140.4,302,140.4,302 M319.3,402c103-53.5,55.4-104.9,22.1-98
	c-8.1,1.7-11.8,3.2-11.8,3.2s3-4.7,8.8-6.8c65.7-23.1,116.3,68.2-21.2,104.3C317.3,404.7,318.9,403.3,319.3,402"/>
<path class="st1" d="M257.3,0c0,0,57,57-54.1,144.7c-89.1,70.4-20.3,110.5,0,156.3c-52-46.9-90.2-88.2-64.6-126.7
	C176.2,118,280.3,90.6,257.3,0"/>
<path class="st0" d="M150.5,547c98.8,6.3,250.6-3.5,254.2-50.3c0,0-6.9,17.7-81.7,31.8c-84.3,15.9-188.4,14-250.1,3.8
	C73,532.4,85.6,542.8,150.5,547"/>
</svg>
